<svg width="34" height="34" viewBox="0 0 34 34" fill="none" xmlns="http://www.w3.org/2000/svg">
<path fill-rule="evenodd" clip-rule="evenodd" d="M27.5527 11.9682L23.216 15.5821C23.428 16.5147 23.428 17.4853 23.216 18.4179L27.5527 22.0318C29.0658 18.8583 29.0658 15.1417 27.5527 11.9682ZM22.0318 27.5527L18.4179 23.216C17.4853 23.428 16.5147 23.428 15.5821 23.216L11.9682 27.5527C15.1417 29.0658 18.8583 29.0658 22.0318 27.5527ZM6.44728 22.0318L10.784 18.4179C10.572 17.4853 10.572 16.5147 10.784 15.5821L6.44728 11.9682C4.93424 15.1417 4.93424 18.8583 6.44728 22.0318ZM11.9682 6.44728L15.5821 10.784C16.5147 10.572 17.4853 10.572 18.4179 10.784L22.0318 6.44728C18.8583 4.93424 15.1417 4.93424 11.9682 6.44728ZM24.2328 5.2292C25.1351 5.78461 25.9866 6.45281 26.7669 7.23309C27.5472 8.01336 28.2154 8.86487 28.7708 9.76719C31.4931 14.1898 31.4931 19.8102 28.7708 24.2328C28.2154 25.1351 27.5472 25.9866 26.7669 26.7669C25.9866 27.5472 25.1351 28.2154 24.2328 28.7708C19.8102 31.4931 14.1898 31.4931 9.76719 28.7708C8.86487 28.2154 8.01336 27.5472 7.23309 26.7669C6.45281 25.9866 5.78461 25.1351 5.2292 24.2328C2.50694 19.8102 2.50693 14.1898 5.2292 9.76719C5.78461 8.86487 6.45281 8.01336 7.23309 7.23309C8.01336 6.45281 8.86487 5.78461 9.76719 5.2292C14.1898 2.50693 19.8102 2.50693 24.2328 5.2292ZM20.0052 13.9948C19.544 13.5336 19.0057 13.202 18.4329 12.9975C17.5086 12.6675 16.4914 12.6675 15.5671 12.9975C14.9943 13.202 14.456 13.5336 13.9948 13.9948C13.5336 14.456 13.202 14.9943 12.9975 15.5671C12.6675 16.4914 12.6675 17.5086 12.9975 18.4329C13.202 19.0057 13.5336 19.544 13.9948 20.0052C14.456 20.4664 14.9943 20.798 15.5671 21.0025C16.4914 21.3325 17.5086 21.3325 18.4329 21.0025C19.0057 20.798 19.544 20.4664 20.0052 20.0052C20.4664 19.544 20.798 19.0057 21.0025 18.4329C21.3325 17.5086 21.3325 16.4914 21.0025 15.5671C20.798 14.9943 20.4664 14.456 20.0052 13.9948Z" fill="#262626"/>
</svg>
