<svg width="34" height="34" viewBox="0 0 34 34" fill="none" xmlns="http://www.w3.org/2000/svg">
<path d="M6.375 9.03125C6.375 5.80384 8.99134 3.1875 12.2188 3.1875C15.4462 3.1875 18.0625 5.80384 18.0625 9.03125C18.0625 12.2587 15.4462 14.875 12.2188 14.875C8.99134 14.875 6.375 12.2587 6.375 9.03125Z" fill="#262626"/>
<path d="M20.1875 12.2188C20.1875 9.57814 22.3281 7.4375 24.9688 7.4375C27.6094 7.4375 29.75 9.57814 29.75 12.2188C29.75 14.8594 27.6094 17 24.9688 17C22.3281 17 20.1875 14.8594 20.1875 12.2188Z" fill="#262626"/>
<path d="M2.125 27.0938C2.125 21.5191 6.64413 17 12.2188 17C17.7934 17 22.3125 21.5191 22.3125 27.0938V27.0974C22.3125 27.1538 22.312 27.2104 22.311 27.2665C22.3049 27.6327 22.1105 27.9699 21.7967 28.1589C18.9985 29.8437 15.7201 30.8125 12.2188 30.8125C8.71736 30.8125 5.439 29.8437 2.64075 28.1589C2.32696 27.9699 2.13261 27.6327 2.12645 27.2665C2.12549 27.2091 2.125 27.1515 2.125 27.0938Z" fill="#262626"/>
<path d="M24.4373 27.0982C24.4373 27.1663 24.4367 27.2345 24.4355 27.3022C24.4275 27.782 24.3117 28.2452 24.1055 28.6619C24.3911 28.6789 24.6788 28.6875 24.9685 28.6875C27.2291 28.6875 29.3704 28.1638 31.2749 27.2301C31.6249 27.0586 31.8528 26.7092 31.8688 26.3198C31.8728 26.2241 31.8748 26.1279 31.8748 26.0312C31.8748 22.217 28.7827 19.125 24.9685 19.125C23.9111 19.125 22.9091 19.3627 22.0132 19.7875C23.5357 21.8253 24.4373 24.3543 24.4373 27.0938V27.0982Z" fill="#262626"/>
</svg>
