<svg width="24" height="24" viewBox="0 0 24 24" fill="none" xmlns="http://www.w3.org/2000/svg">
<path d="M4.57556 16.5964L4.83622 17.5839C5.16637 18.8678 5.88751 19.5262 7.32109 19.5262H16.6785C18.1208 19.5262 18.8332 18.8843 19.172 17.5839L19.4327 16.5964H4.57556ZM4.28885 15.4689H19.7281L21.3615 9.13189L20.6491 8.74509L16.6438 11.5103C16.3483 11.7079 16.1485 11.6338 15.9834 11.4116L12.2126 6.01277L11.7956 5.99631L7.9901 11.4362C7.8424 11.6502 7.66863 11.7161 7.37322 11.5185L3.44607 8.80269L2.61199 9.00844L4.28885 15.4689ZM2.93346 10.7778C4.08033 10.7778 5.00129 9.89727 5.00129 8.80269C5.00129 7.73282 4.08033 6.84399 2.93346 6.84399C1.78659 6.84399 0.856934 7.72458 0.856934 8.80269C0.856934 9.89727 1.79528 10.7778 2.93346 10.7778ZM12.0042 7.35424C13.1423 7.35424 14.072 6.47364 14.072 5.3873C14.072 4.31741 13.1423 3.42859 12.0042 3.42859C10.8486 3.42859 9.92763 4.30919 9.92763 5.3873C9.92763 6.47364 10.8573 7.35424 12.0042 7.35424ZM21.0661 10.7778C22.2043 10.7778 23.1426 9.89727 23.1426 8.80269C23.1426 7.72458 22.213 6.84399 21.0661 6.84399C19.928 6.84399 18.9983 7.73282 18.9983 8.80269C18.9983 9.89727 19.928 10.7778 21.0661 10.7778Z" fill="#262626"/>
</svg>
