<svg width="183" height="40" viewBox="0 0 183 40" fill="none" xmlns="http://www.w3.org/2000/svg">
<path d="M11.6666 19.9999L19.9999 11.6666L28.3333 19.9999L19.9999 28.3333L11.6666 19.9999Z" fill="#1A1A1A"/>
<path d="M36.6666 9.99992V19.9999L19.9999 3.33325H29.9999L36.6666 9.99992Z" fill="#1A1A1A"/>
<path d="M36.6666 29.9999V19.9999L19.9999 36.6666H29.9999L36.6666 29.9999Z" fill="#1A1A1A"/>
<path d="M3.33325 29.9999V19.9999L19.9999 36.6666H9.99992L3.33325 29.9999Z" fill="#1A1A1A"/>
<path d="M3.33325 9.99992V19.9999L19.9999 3.33325H9.99992L3.33325 9.99992Z" fill="#1A1A1A"/>
<path d="M46.6467 27.4999V12.3332H49.1384V27.4999H46.6467ZM48.3584 27.4999V25.2249H56.2884V27.4999H48.3584Z" fill="#262626"/>
<path d="M58.2558 27.4999V17.0999H60.6392V27.4999H58.2558ZM59.4475 15.1932C59.0431 15.1932 58.7036 15.056 58.4292 14.7816C58.1692 14.5071 58.0392 14.1677 58.0392 13.7632C58.0392 13.3588 58.1692 13.0193 58.4292 12.7449C58.7036 12.4705 59.0431 12.3332 59.4475 12.3332C59.8664 12.3332 60.2058 12.4705 60.4658 12.7449C60.7258 13.0193 60.8558 13.3588 60.8558 13.7632C60.8558 14.1677 60.7258 14.5071 60.4658 14.7816C60.2058 15.056 59.8664 15.1932 59.4475 15.1932Z" fill="#262626"/>
<path d="M64.894 27.4999V12.7666H67.2773V27.4999H64.894ZM62.4023 19.2666V17.0999H76.0523V19.2666H62.4023ZM71.1773 27.4999V12.7666H73.5606V27.4999H71.1773Z" fill="#262626"/>
<path d="M77.7849 27.4999V11.8999H80.1683V27.4999H77.7849Z" fill="#262626"/>
<path d="M87.6524 27.7166C86.6124 27.7166 85.6735 27.4855 84.8358 27.0232C84.0124 26.5466 83.3552 25.8966 82.8641 25.0732C82.3874 24.2499 82.1491 23.3255 82.1491 22.2999C82.1491 21.2743 82.3874 20.3571 82.8641 19.5482C83.3408 18.7249 83.9835 18.0749 84.7924 17.5982C85.6158 17.1216 86.5258 16.8832 87.5224 16.8832C88.4902 16.8832 89.3424 17.1071 90.0791 17.5549C90.8302 18.0027 91.4152 18.6166 91.8341 19.3966C92.2674 20.1766 92.4841 21.0649 92.4841 22.0616C92.4841 22.2349 92.4696 22.4155 92.4408 22.6032C92.4263 22.7766 92.3974 22.9716 92.3541 23.1882H83.8174V21.2382H91.1191L90.2308 22.0182C90.2019 21.3827 90.0791 20.8482 89.8624 20.4149C89.6458 19.9816 89.3352 19.6493 88.9308 19.4182C88.5408 19.1871 88.0569 19.0716 87.4791 19.0716C86.8724 19.0716 86.3452 19.2016 85.8974 19.4616C85.4496 19.7216 85.103 20.0899 84.8574 20.5666C84.6119 21.0288 84.4891 21.5849 84.4891 22.2349C84.4891 22.8849 84.6191 23.4555 84.8791 23.9466C85.1391 24.4377 85.5074 24.8205 85.9841 25.0949C86.4608 25.3549 87.0096 25.4849 87.6308 25.4849C88.1652 25.4849 88.6563 25.391 89.1041 25.2032C89.5663 25.0155 89.9563 24.741 90.2741 24.3799L91.7908 25.9182C91.2852 26.5105 90.6713 26.9582 89.9491 27.2616C89.2269 27.5649 88.4613 27.7166 87.6524 27.7166Z" fill="#262626"/>
<path d="M99.0572 27.4999V12.3332H101.549V27.4999H99.0572ZM100.769 27.4999V25.2249H108.699V27.4999H100.769Z" fill="#262626"/>
<path d="M115.117 27.7166C114.077 27.7166 113.138 27.4855 112.3 27.0232C111.477 26.5466 110.819 25.8966 110.328 25.0732C109.852 24.2499 109.613 23.3255 109.613 22.2999C109.613 21.2743 109.852 20.3571 110.328 19.5482C110.805 18.7249 111.448 18.0749 112.257 17.5982C113.08 17.1216 113.99 16.8832 114.987 16.8832C115.954 16.8832 116.807 17.1071 117.543 17.5549C118.294 18.0027 118.879 18.6166 119.298 19.3966C119.732 20.1766 119.948 21.0649 119.948 22.0616C119.948 22.2349 119.934 22.4155 119.905 22.6032C119.891 22.7766 119.862 22.9716 119.818 23.1882H111.282V21.2382H118.583L117.695 22.0182C117.666 21.3827 117.543 20.8482 117.327 20.4149C117.11 19.9816 116.799 19.6493 116.395 19.4182C116.005 19.1871 115.521 19.0716 114.943 19.0716C114.337 19.0716 113.809 19.2016 113.362 19.4616C112.914 19.7216 112.567 20.0899 112.322 20.5666C112.076 21.0288 111.953 21.5849 111.953 22.2349C111.953 22.8849 112.083 23.4555 112.343 23.9466C112.603 24.4377 112.972 24.8205 113.448 25.0949C113.925 25.3549 114.474 25.4849 115.095 25.4849C115.629 25.4849 116.121 25.391 116.568 25.2032C117.031 25.0155 117.421 24.741 117.738 24.3799L119.255 25.9182C118.749 26.5105 118.136 26.9582 117.413 27.2616C116.691 27.5649 115.926 27.7166 115.117 27.7166Z" fill="#262626"/>
<path d="M126.214 27.7166C125.275 27.7166 124.423 27.4782 123.657 27.0016C122.906 26.5249 122.307 25.8821 121.859 25.0732C121.426 24.2499 121.209 23.3327 121.209 22.3216C121.209 21.296 121.426 20.3788 121.859 19.5699C122.307 18.7466 122.906 18.0966 123.657 17.6199C124.423 17.1288 125.275 16.8832 126.214 16.8832C127.008 16.8832 127.709 17.0566 128.316 17.4032C128.937 17.7355 129.428 18.1977 129.789 18.7899C130.15 19.3821 130.331 20.0538 130.331 20.8049V23.7949C130.331 24.546 130.15 25.2177 129.789 25.8099C129.442 26.4021 128.958 26.8716 128.337 27.2182C127.716 27.5505 127.008 27.7166 126.214 27.7166ZM126.604 25.4632C127.485 25.4632 128.193 25.1671 128.727 24.5749C129.276 23.9827 129.551 23.2243 129.551 22.2999C129.551 21.6788 129.428 21.1299 129.182 20.6532C128.937 20.1766 128.59 19.8082 128.142 19.5482C127.709 19.2738 127.196 19.1366 126.604 19.1366C126.026 19.1366 125.513 19.2738 125.066 19.5482C124.632 19.8082 124.286 20.1766 124.026 20.6532C123.78 21.1299 123.657 21.6788 123.657 22.2999C123.657 22.921 123.78 23.4699 124.026 23.9466C124.286 24.4232 124.632 24.7988 125.066 25.0732C125.513 25.3332 126.026 25.4632 126.604 25.4632ZM129.399 27.4999V24.7049L129.811 22.1699L129.399 19.6566V17.0999H131.782V27.4999H129.399Z" fill="#262626"/>
<path d="M134.427 27.4999V17.0999H136.811V27.4999H134.427ZM136.811 21.7149L135.987 21.3032C135.987 19.9888 136.276 18.9271 136.854 18.1182C137.446 17.2949 138.334 16.8832 139.519 16.8832C140.039 16.8832 140.508 16.9771 140.927 17.1649C141.346 17.3527 141.736 17.656 142.097 18.0749L140.537 19.6782C140.349 19.476 140.14 19.3316 139.909 19.2449C139.678 19.1582 139.411 19.1149 139.107 19.1149C138.443 19.1149 137.894 19.3243 137.461 19.7432C137.027 20.1621 136.811 20.8193 136.811 21.7149Z" fill="#262626"/>
<path d="M150.379 27.4999V21.4982C150.379 20.8049 150.155 20.2343 149.707 19.7866C149.274 19.3388 148.71 19.1149 148.017 19.1149C147.555 19.1149 147.143 19.216 146.782 19.4182C146.421 19.6205 146.139 19.9021 145.937 20.2632C145.735 20.6243 145.634 21.036 145.634 21.4982L144.702 20.9782C144.702 20.1838 144.875 19.4832 145.222 18.8766C145.569 18.2555 146.045 17.7716 146.652 17.4249C147.273 17.0638 147.967 16.8832 148.732 16.8832C149.512 16.8832 150.205 17.0855 150.812 17.4899C151.419 17.8799 151.895 18.3927 152.242 19.0282C152.589 19.6493 152.762 20.2993 152.762 20.9782V27.4999H150.379ZM143.25 27.4999V17.0999H145.634V27.4999H143.25Z" fill="#262626"/>
<path d="M160.016 27.7166C158.976 27.7166 158.037 27.4855 157.199 27.0232C156.376 26.5466 155.718 25.8966 155.227 25.0732C154.751 24.2499 154.512 23.3255 154.512 22.2999C154.512 21.2743 154.751 20.3571 155.227 19.5482C155.704 18.7249 156.347 18.0749 157.156 17.5982C157.979 17.1216 158.889 16.8832 159.886 16.8832C160.853 16.8832 161.706 17.1071 162.442 17.5549C163.193 18.0027 163.778 18.6166 164.197 19.3966C164.631 20.1766 164.847 21.0649 164.847 22.0616C164.847 22.2349 164.833 22.4155 164.804 22.6032C164.79 22.7766 164.761 22.9716 164.717 23.1882H156.181V21.2382H163.482L162.594 22.0182C162.565 21.3827 162.442 20.8482 162.226 20.4149C162.009 19.9816 161.698 19.6493 161.294 19.4182C160.904 19.1871 160.42 19.0716 159.842 19.0716C159.236 19.0716 158.708 19.2016 158.261 19.4616C157.813 19.7216 157.466 20.0899 157.221 20.5666C156.975 21.0288 156.852 21.5849 156.852 22.2349C156.852 22.8849 156.982 23.4555 157.242 23.9466C157.502 24.4377 157.871 24.8205 158.347 25.0949C158.824 25.3549 159.373 25.4849 159.994 25.4849C160.528 25.4849 161.02 25.391 161.467 25.2032C161.93 25.0155 162.32 24.741 162.637 24.3799L164.154 25.9182C163.648 26.5105 163.035 26.9582 162.312 27.2616C161.59 27.5649 160.825 27.7166 160.016 27.7166Z" fill="#262626"/>
<path d="M166.758 27.4999V17.0999H169.141V27.4999H166.758ZM169.141 21.7149L168.318 21.3032C168.318 19.9888 168.607 18.9271 169.185 18.1182C169.777 17.2949 170.665 16.8832 171.85 16.8832C172.37 16.8832 172.839 16.9771 173.258 17.1649C173.677 17.3527 174.067 17.656 174.428 18.0749L172.868 19.6782C172.68 19.476 172.471 19.3316 172.24 19.2449C172.008 19.1582 171.741 19.1149 171.438 19.1149C170.773 19.1149 170.225 19.3243 169.791 19.7432C169.358 20.1621 169.141 20.8193 169.141 21.7149Z" fill="#262626"/>
<path d="M178.75 27.7166C178.172 27.7166 177.616 27.6443 177.082 27.4999C176.547 27.341 176.056 27.1243 175.608 26.8499C175.161 26.561 174.771 26.2143 174.438 25.8099L175.955 24.2932C176.316 24.7121 176.728 25.0299 177.19 25.2466C177.667 25.4488 178.201 25.5499 178.793 25.5499C179.328 25.5499 179.732 25.4705 180.007 25.3116C180.281 25.1527 180.418 24.9216 180.418 24.6182C180.418 24.3005 180.288 24.0549 180.028 23.8816C179.768 23.7082 179.429 23.5638 179.01 23.4482C178.606 23.3182 178.172 23.1882 177.71 23.0582C177.262 22.9282 176.829 22.7549 176.41 22.5382C176.006 22.3071 175.673 21.9966 175.413 21.6066C175.153 21.2166 175.023 20.711 175.023 20.0899C175.023 19.4255 175.175 18.8549 175.478 18.3782C175.796 17.9016 176.237 17.5332 176.8 17.2732C177.378 17.0132 178.064 16.8832 178.858 16.8832C179.696 16.8832 180.433 17.0349 181.068 17.3382C181.718 17.6271 182.26 18.0677 182.693 18.6599L181.177 20.1766C180.873 19.801 180.527 19.5193 180.137 19.3316C179.747 19.1438 179.299 19.0499 178.793 19.0499C178.317 19.0499 177.948 19.1221 177.688 19.2666C177.428 19.411 177.298 19.6205 177.298 19.8949C177.298 20.1838 177.428 20.4077 177.688 20.5666C177.948 20.7255 178.281 20.8627 178.685 20.9782C179.104 21.0938 179.537 21.2238 179.985 21.3682C180.447 21.4982 180.881 21.686 181.285 21.9316C181.704 22.1627 182.043 22.4805 182.303 22.8849C182.563 23.2749 182.693 23.7877 182.693 24.4232C182.693 25.4343 182.34 26.236 181.632 26.8282C180.924 27.4205 179.963 27.7166 178.75 27.7166Z" fill="#262626"/>
</svg>
