<svg width="17" height="15" viewBox="0 0 17 15" fill="none" xmlns="http://www.w3.org/2000/svg">
<path fill-rule="evenodd" clip-rule="evenodd" d="M-3.14722e-07 7.1999C-3.36449e-07 6.70284 0.402943 6.2999 0.9 6.2999L13.6655 6.2999L8.6762 1.54865C8.31791 1.20414 8.30674 0.634397 8.65125 0.276103C8.99576 -0.0821919 9.5655 -0.0933632 9.9238 0.251151L16.5238 6.55115C16.7003 6.72083 16.8 6.95508 16.8 7.1999C16.8 7.44472 16.7003 7.67897 16.5238 7.84865L9.9238 14.1487C9.5655 14.4932 8.99576 14.482 8.65125 14.1237C8.30674 13.7654 8.31791 13.1957 8.6762 12.8512L13.6655 8.0999L0.9 8.0999C0.402943 8.0999 -2.92995e-07 7.69696 -3.14722e-07 7.1999Z" fill="#262626"/>
</svg>
