<svg width="47" height="47" viewBox="0 0 47 47" fill="none" xmlns="http://www.w3.org/2000/svg">
<mask id="mask0_157_30109" style="mask-type:luminance" maskUnits="userSpaceOnUse" x="0" y="0" width="47" height="47">
<path d="M46.9725 0H0V46.9725H46.9725V0Z" fill="white"/>
</mask>
<g mask="url(#mask0_157_30109)">
<path d="M24.4483 5.73172C25.7904 5.77965 27.1325 6.0193 28.4745 6.45068C30.3507 6.98033 32.022 8.06668 33.2676 9.5662C34.1783 10.7645 34.7535 12.2024 34.9452 13.6883C35.2039 15.2895 35.2362 16.9191 35.0411 18.5293L34.8014 20.159L34.6097 21.1176C34.5618 21.2135 34.5618 21.2135 34.4659 21.2135C34.3701 21.0217 34.3701 20.83 34.3701 20.6383C34.3221 19.9193 34.418 19.2483 34.4659 18.5293C34.5139 17.379 34.6097 16.2286 34.5139 15.0783L34.2263 12.9214C33.8908 11.5793 33.2676 10.3331 32.309 9.32655C31.4463 8.46379 30.3918 7.74482 29.2894 7.26551C28.2349 6.83413 27.1804 6.54654 26.078 6.35482C25.2152 6.21103 24.3525 6.1631 23.4897 6.1631C21.3628 6.12826 19.2587 6.60498 17.3545 7.5531C16.7314 7.98448 16.1562 8.51172 15.6769 9.08689C14.2021 11.0229 13.2899 13.3283 13.0407 15.7493C12.9928 16.8997 13.0407 18.0021 13.4242 19.1045L13.7597 19.8235L14.3349 19.8714L14.3828 20.0152C14.239 20.111 14.0473 20.111 13.8556 20.159C13.3762 20.2548 12.8969 20.4466 12.4656 20.7341C12.13 20.9738 11.7945 21.2614 11.6028 21.6448C11.3631 22.1242 11.459 22.6993 11.5549 23.2266C11.7945 24.1373 12.3697 25 13.1366 25.5752C13.6638 26.0066 14.3349 26.2462 15.0059 26.3421C15.4852 26.438 15.9645 26.3421 16.4438 26.2942C16.6835 26.4859 16.8273 26.8693 16.9711 27.109L17.8338 28.4031C18.6136 29.5114 19.7193 30.349 20.9973 30.7997C22.0518 31.2311 23.1542 31.4707 24.2566 31.7104L26.2218 32.0938L27.0366 32.3335V32.5252H26.4614C25.384 32.4651 24.3114 32.337 23.25 32.1417C21.8246 31.8581 20.4612 31.3225 19.2238 30.56C18.6966 30.2245 18.2173 29.7931 17.8338 29.2659C18.1658 31.2637 17.899 33.315 17.0669 35.1614C16.348 36.4555 15.1497 37.4621 13.7118 37.8935C13.568 37.9414 13.3762 37.9893 13.2325 37.9414C13.1366 37.9414 13.1366 37.8935 13.1366 37.7976C13.1845 37.6538 13.3283 37.558 13.4242 37.51C13.9993 37.1266 14.6704 36.839 15.2456 36.4076C15.8687 35.8804 16.3959 35.3052 16.7314 34.5862C17.019 33.8673 17.2107 33.0524 17.3066 32.2376C17.4025 31.6145 17.4504 30.9914 17.4025 30.3204L17.2107 28.499L16.348 26.7735L15.4373 26.9652C14.7337 26.9857 14.0362 26.8297 13.4083 26.5116C12.7804 26.1935 12.2421 25.7232 11.8424 25.1438C11.2176 24.3523 10.8797 23.3722 10.8838 22.3638C10.8838 21.9324 11.0276 21.501 11.2673 21.1655C11.5069 20.83 11.8424 20.5424 12.178 20.3507C12.4176 20.159 12.7531 20.0631 13.0407 19.9673L12.6093 18.8169C12.3697 17.7624 12.3697 16.66 12.5135 15.6055C12.8274 12.9881 13.8741 10.5125 15.5331 8.46379C15.9645 7.98448 16.3959 7.5531 16.9231 7.21758C17.2587 7.02586 17.5942 6.97792 17.8818 6.7862C19.9428 5.87551 22.1956 5.58792 24.4483 5.73172Z" fill="#262626"/>
<path d="M23.489 6.1618C25.4806 6.08771 27.4631 6.46457 29.2886 7.26421C30.3911 7.74352 31.4455 8.46249 32.3083 9.32525C33.2669 10.3318 33.89 11.578 34.2255 12.9201L34.5131 15.077C34.609 16.2273 34.5131 17.3777 34.4652 18.528C34.4173 19.247 34.3214 19.918 34.3693 20.637C34.3693 20.8287 34.3693 21.0204 34.4652 21.2122L34.4173 22.1708C34.3214 22.4104 34.3214 22.6501 34.3214 22.9377C34.2255 24.088 34.2255 25.2863 34.0338 26.4846C33.9859 27.0598 33.89 27.6829 33.6504 28.2101C33.5066 28.6415 33.2669 29.0249 32.9314 29.3604C32.3562 29.9835 31.6373 30.5108 30.8704 30.9422C29.9597 31.4694 29.0011 31.7091 28.0904 32.0925C27.8507 32.1884 27.6111 32.2842 27.4673 32.476C27.8507 32.5239 28.1862 32.476 28.5697 32.3801C28.33 32.9553 28.2821 33.5304 28.2821 34.1056C28.2821 34.3453 28.2342 34.6329 28.33 34.8725C28.4738 35.1122 28.7135 35.3039 28.9531 35.4477L30.6307 36.0708C31.6852 36.4542 32.6918 36.9336 33.7462 37.3649C33.8421 37.5567 33.9859 37.7005 34.0338 37.9401C34.3214 38.4674 34.3693 39.0425 34.1776 39.6177C33.938 40.2408 33.4586 40.768 32.8835 41.1036C32.1166 41.6308 31.158 42.0143 30.2473 42.2539C26.5204 43.0502 22.6564 42.9351 18.9835 41.9184C18.0248 41.5829 17.0662 41.2474 16.2035 40.768C15.5324 40.3846 14.8135 39.9053 14.2862 39.2822C13.9986 38.8987 13.759 38.3715 13.711 37.8922C14.8334 37.5496 15.8267 36.8773 16.5619 35.9626C17.297 35.048 17.74 33.9333 17.8331 32.7635C18.0248 31.6132 18.0248 30.4149 17.8331 29.2646C18.2166 29.7918 18.6959 30.2232 19.2231 30.5587L20.5173 31.2298C22.3964 32.0404 24.4146 32.4799 26.4607 32.5239H27.0359V32.3322L26.2211 32.0925L24.2559 31.7091C23.1535 31.4694 22.0511 31.2298 20.9966 30.7984C20.3735 30.5108 19.7024 30.1753 19.1273 29.7918C18.6479 29.3604 18.2166 28.9291 17.8331 28.4018L16.9704 27.1077C16.8266 26.868 16.6828 26.4846 16.4431 26.2929C15.9638 26.3408 15.4845 26.4366 15.0052 26.3408C14.3341 26.2449 13.6631 26.0053 13.1359 25.5739C12.3699 24.9813 11.8153 24.1578 11.5541 23.2253C11.4583 22.698 11.3624 22.1228 11.6021 21.6435C11.7938 21.2601 12.1293 20.9725 12.4648 20.7328C12.8962 20.4453 13.3755 20.2535 13.8548 20.1577C14.0466 20.1097 14.2383 20.1097 14.3821 20.0139L14.3341 19.8701L13.759 19.8222L13.4235 19.1032C13.04 18.0008 12.9921 16.8984 13.0879 15.748C13.323 13.3318 14.2185 11.0268 15.6762 9.08559C16.1555 8.51042 16.7307 7.98318 17.3538 7.5518C19.2538 6.58709 21.3582 6.09389 23.489 6.11386V6.1618Z" fill="#FFDECC"/>
<path d="M13.1851 21.888C13.3768 21.888 13.5206 21.888 13.7123 21.9839C13.952 22.0318 14.2395 22.1756 14.3833 22.3673C14.4792 22.5111 14.4792 22.7028 14.3833 22.8466C14.1437 23.1342 13.8082 23.3259 13.6164 23.6135C13.904 23.8053 14.2875 23.9011 14.623 24.0449C14.8147 24.0928 15.0064 24.1887 15.1502 24.3325L15.1982 24.4763L14.8147 24.3804L13.6644 24.0449C13.4726 23.997 13.2809 23.9011 13.233 23.7094C13.1851 23.5656 13.2809 23.3739 13.3768 23.2301L14.0957 22.607C13.904 22.2715 13.3768 22.2235 13.1851 21.888ZM34.4185 22.1756L34.5144 22.3194L34.6103 23.0863C34.7097 24.5082 34.6776 25.9362 34.5144 27.3522C34.4185 27.8794 34.2747 28.4546 34.0351 28.9339C32.7634 30.5978 30.977 31.7943 28.9544 32.337C28.9065 33.008 28.8106 33.8229 28.8585 34.5898L29.0982 34.8294C29.4816 35.117 29.9609 35.2608 30.3923 35.4046C31.5135 35.7625 32.6035 36.2113 33.6516 36.7467C33.9872 36.9384 34.2747 37.178 34.5144 37.4656C34.2747 37.5136 34.0351 37.4177 33.7475 37.3698C32.693 36.9384 31.6865 36.4591 30.632 36.0756L28.9544 35.4525C28.7147 35.3087 28.4751 35.117 28.3313 34.8773C28.2354 34.6377 28.2834 34.3501 28.2834 34.1104C28.2834 33.5353 28.3313 32.9601 28.5709 32.3849C28.1875 32.4808 27.852 32.5287 27.4685 32.4808C27.6123 32.2891 27.852 32.1932 28.0916 32.0973C29.0023 31.7139 29.9609 31.4742 30.8716 30.947C31.6385 30.5156 32.3575 29.9884 32.9327 29.3653C33.2682 29.0297 33.5078 28.6463 33.6516 28.2149C33.8913 27.6877 33.9872 27.0646 34.0351 26.4894C34.2268 25.2911 34.2268 24.0928 34.3227 22.9425C34.3227 22.6549 34.3227 22.4153 34.4185 22.1756Z" fill="#262626"/>
<path d="M33.9388 18.9583L33.8429 19.2938C33.6992 19.5335 33.5554 19.7252 33.3157 19.869C33.076 20.0128 32.7885 20.0607 32.5009 20.1087L31.6381 20.2045C31.3985 20.2045 31.2547 20.3483 31.1588 20.4921L30.8233 20.8276C30.7274 20.8756 30.5836 20.7797 30.6316 20.6838C30.6795 20.3004 30.9671 20.0128 31.1588 19.7252C31.3026 19.5814 31.4943 19.3897 31.734 19.3897L33.1719 19.1501C33.4116 19.1021 33.6512 18.9583 33.9388 18.9583ZM19.3198 19.1501C19.895 19.1021 20.3264 19.2938 20.8536 19.3418C21.5726 19.4376 22.2916 19.5335 23.0105 19.5335L24.1609 19.6294C24.5443 19.6773 24.9757 19.6294 25.3112 19.8211C25.6467 20.0128 25.8864 20.3004 26.0781 20.588C26.126 20.6838 26.174 20.7797 26.0781 20.9235C26.0302 20.9714 25.9343 20.9235 25.8864 20.8756C25.6947 20.7797 25.5509 20.588 25.3591 20.5401L24.784 20.4921L23.4419 20.4442L22.3874 20.3963C21.9081 20.3483 21.4288 20.3483 20.9495 20.1566C20.614 20.0607 20.3743 19.869 20.0388 19.7252L19.4636 19.2938C19.3678 19.2459 19.3198 19.2459 19.3198 19.1501Z" fill="#262626"/>
<path d="M24.8311 13.3999C25.1666 13.3999 25.5021 13.4958 25.7418 13.6875C25.9335 13.7833 26.0773 13.8792 26.1253 14.0709C26.1732 14.1668 26.1253 14.3106 26.0294 14.3585C25.7897 14.4064 25.5501 14.2626 25.3584 14.2147L24.927 14.1668C24.3039 14.1189 23.6808 14.2147 23.0577 14.3585C22.0088 14.6553 21.0307 15.1606 20.1818 15.8444C19.9901 15.9402 19.7504 16.084 19.5108 16.0361C19.367 16.0361 19.367 15.8444 19.4149 15.7006C19.4628 15.413 19.7504 15.1733 19.9901 14.9337C20.4694 14.5023 21.0925 14.2147 21.6677 13.9751C22.6263 13.5437 23.7766 13.304 24.8311 13.3999ZM32.3084 13.4958C32.6439 13.3999 32.9794 13.4478 33.267 13.6395C33.4587 13.7833 33.6504 13.9271 33.6984 14.1668C33.7463 14.3106 33.7463 14.4544 33.6025 14.5023C33.4587 14.5502 33.267 14.5502 33.1232 14.4544C32.8835 14.3106 32.6918 14.1668 32.4042 14.1668C32.1646 14.1668 31.9249 14.2147 31.7332 14.3106C31.3497 14.5023 30.9663 14.8378 30.7746 15.2213L30.487 15.6526H30.3432V15.3651C30.439 14.9816 30.6787 14.5982 30.9663 14.3106C31.3018 13.9271 31.7811 13.5916 32.3084 13.4958Z" fill="#262626"/>
<path d="M11.0754 21.7915C11.3151 21.7915 11.5548 21.7436 11.7465 21.8874C11.8903 21.9833 11.9861 22.127 11.9382 22.3188C11.8423 22.5105 11.6506 22.6543 11.411 22.6543H10.6441C10.4044 22.6064 10.2127 22.5105 10.1168 22.3188C10.0689 22.127 10.2127 21.9833 10.3565 21.8874C10.5961 21.7915 10.8358 21.8395 11.0754 21.7915ZM11.6985 22.8939C11.8423 22.9419 12.0341 23.0377 12.0341 23.2295C12.0341 23.3733 11.9861 23.517 11.8423 23.565C11.6027 23.7567 11.3151 23.7567 11.0275 23.8526C10.7879 23.9005 10.5482 23.9484 10.3565 23.8046C10.1648 23.6608 10.2127 23.3733 10.3565 23.2295C10.5482 23.0377 10.7399 23.0377 10.9796 22.9898C11.2192 22.9419 11.4589 22.846 11.6985 22.8939ZM15.1496 25.3864H15.533C15.6768 25.4343 15.8206 25.5781 15.8206 25.7698C15.8206 26.0095 15.6289 26.2012 15.3892 26.2491C15.1496 26.345 14.9579 26.1533 14.862 25.9615C14.8141 25.7219 14.9099 25.4343 15.1496 25.3864Z" fill="#262626"/>
<path d="M29.8164 23.5612C29.8164 23.705 29.7205 23.8488 29.6246 23.9926C29.4329 24.2802 29.0974 24.4719 28.7619 24.5678C28.5222 24.6157 28.3305 24.4719 28.1388 24.5678C27.947 24.5678 27.7553 24.6157 27.5636 24.5198C27.4677 24.4719 27.4677 24.3281 27.5636 24.2322C27.7074 24.0405 27.947 23.8967 28.1388 23.8967C28.3305 23.8488 28.4743 23.8488 28.6181 23.9926L28.666 24.3281C28.9057 24.2322 29.0015 24.0884 29.1933 23.9447L29.8164 23.5612Z" fill="#262626"/>
<path d="M35.184 22.5593C35.6154 22.5593 35.9989 22.751 36.2385 23.0865C36.3505 23.2337 36.4321 23.4018 36.4783 23.5809C36.5245 23.76 36.5345 23.9465 36.5077 24.1296C36.481 24.3126 36.4179 24.4884 36.3223 24.6468C36.2267 24.8051 36.1004 24.9428 35.9509 25.0517C36.3344 25.1476 36.7178 25.3872 37.0054 25.6748C37.4368 26.202 37.7723 26.921 37.7244 27.64C37.6765 28.0234 37.5327 28.3589 37.3409 28.6465C36.9575 29.2696 36.3344 29.701 35.6634 29.9886L36.0468 30.42C36.1906 30.7555 36.2385 31.091 36.2385 31.4745C36.1906 32.0496 35.9509 32.6248 35.5196 33.0562C35.0245 33.5296 34.3811 33.8174 33.6982 33.871C33.2189 33.919 32.6916 33.919 32.2123 33.7752C32.1644 34.1107 32.0685 34.4941 31.9247 34.8296C31.6018 35.3992 31.0882 35.8365 30.4744 36.0645C29.8606 36.2925 29.186 36.2965 28.5696 36.0759C27.9944 35.8362 27.5151 35.4048 27.2275 34.9255C26.5085 35.3569 25.7416 35.5007 24.9268 35.5007C24.2558 35.5486 23.4409 35.5007 22.8658 35.1652C22.4823 35.0214 22.2426 34.7338 22.003 34.4462C21.8592 34.3024 21.7633 34.1586 21.7154 33.919C21.1882 34.3503 20.4692 34.4462 19.8461 34.3503C19.3668 34.2065 18.9354 33.9669 18.6957 33.5355C18.4561 33.2479 18.4082 32.8165 18.4082 32.4331H17.7371C17.3537 32.3852 16.9702 32.1934 16.6347 31.9538C16.1075 31.4745 15.6761 30.8514 15.3885 30.1803C15.2926 29.8927 15.1968 29.6052 15.1968 29.2696C15.1968 28.7424 15.3885 28.2152 15.724 27.7838C15.5802 27.4483 15.5323 27.1127 15.6282 26.7772C15.772 26.202 16.2033 25.7227 16.6826 25.4352C17.114 25.1476 17.6413 25.0517 18.1685 25.0996C18.2644 24.812 18.4082 24.6203 18.6478 24.4286C19.1751 23.9493 19.8461 23.6617 20.5651 23.6617C21.0444 23.6617 21.4758 23.7096 21.8592 23.9014C22.0509 23.6138 22.2906 23.47 22.5782 23.3741C23.1054 23.1345 23.6806 23.1824 24.2078 23.422C25.1185 23.7576 25.8375 24.2848 26.7002 24.6203C26.9399 24.812 27.2754 24.7641 27.6109 24.812C27.9464 24.86 28.282 24.812 28.6175 24.7641C28.7613 24.7162 28.953 24.7162 29.0489 24.6203L29.9596 24.141L30.9182 23.422C31.3016 23.1824 31.7809 22.9427 32.2602 22.9907C32.452 23.0386 32.5958 23.1345 32.6916 23.2783C33.4316 22.7941 34.2999 22.5436 35.184 22.5593Z" fill="#262626"/>
<path d="M23.6343 27.011C23.7781 26.9631 23.8739 27.011 23.8739 27.1069C23.8739 27.2506 23.7301 27.3944 23.5863 27.4424C23.4425 27.2986 23.4905 27.1069 23.6343 27.011ZM24.8325 27.5862L26.5581 27.9217L27.996 28.0175C28.3315 28.0655 28.6191 28.0175 28.9067 28.1134C28.8588 28.2093 28.7629 28.2572 28.6191 28.3051C27.4307 28.4923 26.2149 28.3938 25.0722 28.0175C24.9284 27.9696 24.7367 27.8738 24.6887 27.73C24.6408 27.6341 24.7367 27.5382 24.8325 27.5862Z" fill="#FFDECC"/>
<path d="M23.3942 5.10943C24.7476 5.11212 26.0971 5.2567 27.4204 5.54081C27.9476 5.6846 28.4269 5.78046 28.9063 5.97219L30.5838 6.59529C31.0632 6.73908 31.4945 7.02667 31.9738 7.2184L32.7407 7.50598L34.1307 7.79357C34.3704 7.88943 34.5621 8.03322 34.658 8.27288C34.8018 8.56047 34.7538 8.84805 34.658 9.13564L35.1373 9.37529C35.377 9.61495 35.4728 9.95047 35.377 10.286C35.2811 10.4777 35.0894 10.6215 34.8976 10.7174C33.8777 11.2404 32.7029 11.3766 31.5904 11.1008L29.4814 10.6215L26.5097 9.80667C23.9691 8.93746 21.2038 8.98835 18.6969 9.95047L18.5052 10.6215C18.3135 11.3884 18.1697 12.1553 18.1218 12.9222V13.737L18.0738 14.1205C17.93 14.456 17.6424 14.7915 17.4507 15.127C16.8755 15.9898 16.3483 16.9005 15.9169 17.8112L15.8211 18.4822V20.3515C15.8211 20.5912 15.9169 20.7829 15.7731 20.9746C15.0542 20.8788 14.3352 20.687 13.5683 20.4953C13.4724 20.4953 13.3286 20.4953 13.2328 20.3994L12.8973 19.9681C12.7055 19.8243 12.6576 19.5367 12.5618 19.297C12.2262 18.2905 12.1304 17.1401 12.1304 16.0377C12.1304 14.6956 12.37 13.4015 12.6097 12.1074C12.8014 11.3884 13.089 10.7174 13.4245 10.0943C13.9038 9.13564 14.5749 8.32081 15.3418 7.60184C16.1087 6.83495 17.0193 6.3077 18.0259 5.92426C19.7468 5.3119 21.5691 5.03529 23.3942 5.10943ZM14.5269 20.9746C15.0062 20.9746 15.4855 21.1184 15.9169 21.2143C16.1087 21.2622 16.3483 21.3581 16.4921 21.5019C16.6359 21.5977 16.588 21.7894 16.4442 21.8374C16.0128 21.9812 15.6773 21.8374 15.2938 21.7415C15.0062 21.6457 14.6228 21.5498 14.3352 21.3581C14.2393 21.3101 14.0955 21.1663 14.1914 21.0705C14.2873 20.9746 14.4311 20.9746 14.5269 20.9746ZM35.4728 26.5826C35.5207 26.6784 35.5207 26.7264 35.4249 26.8222L35.4728 26.5826Z" fill="#262626"/>
</g>
</svg>
