<svg width="57" height="57" viewBox="0 0 57 57" fill="none" xmlns="http://www.w3.org/2000/svg">
<mask id="mask0_57_6987" style="mask-type:luminance" maskUnits="userSpaceOnUse" x="0" y="0" width="57" height="57">
<path d="M56.367 0H0V56.367H56.367V0Z" fill="white"/>
</mask>
<g mask="url(#mask0_57_6987)">
<path d="M29.338 6.87807C30.9485 6.93558 32.559 7.22317 34.1694 7.74083C36.4208 8.37641 38.4263 9.68002 39.9212 11.4795C41.014 12.9174 41.7042 14.6429 41.9343 16.4259C42.2447 18.3474 42.2834 20.303 42.0493 22.2352L41.7617 24.1908L41.5317 25.3411C41.4741 25.4562 41.4741 25.4562 41.3591 25.4562C41.2441 25.2261 41.2441 24.996 41.2441 24.766C41.1866 23.9032 41.3016 23.0979 41.3591 22.2352C41.4166 20.8548 41.5317 19.4744 41.4166 18.0939L41.0715 15.5057C40.6689 13.8952 39.9212 12.3997 38.7708 11.1919C37.7355 10.1566 36.4701 9.29379 35.1472 8.71862C33.8819 8.20096 32.6165 7.85586 31.2936 7.62579C30.2583 7.45324 29.223 7.39572 28.1876 7.39572C25.6354 7.35392 23.1104 7.92598 20.8254 9.06372C20.0777 9.58138 19.3875 10.2141 18.8123 10.9043C17.0425 13.2275 15.9478 15.994 15.6489 18.8992C15.5914 20.2796 15.6489 21.6025 16.109 22.9254L16.5116 23.7882L17.2018 23.8457L17.2594 24.0182C17.0868 24.1333 16.8567 24.1333 16.6267 24.1908C16.0515 24.3058 15.4763 24.5359 14.9587 24.881C14.556 25.1686 14.1534 25.5137 13.9234 25.9738C13.6358 26.549 13.7508 27.2392 13.8658 27.8719C14.1534 28.9647 14.8436 30 15.7639 30.6902C16.3966 31.2079 17.2018 31.4955 18.0071 31.6105C18.5823 31.7255 19.1574 31.6105 19.7326 31.553C20.0202 31.7831 20.1927 32.2432 20.3653 32.5308L21.4006 34.0838C22.3363 35.4136 23.6632 36.4189 25.1967 36.9596C26.4621 37.4773 27.785 37.7649 29.1079 38.0524L31.4661 38.5126L32.4439 38.8002V39.0302H31.7537C30.4608 38.9581 29.1737 38.8044 27.9001 38.5701C26.1895 38.2297 24.5534 37.5869 23.0686 36.672C22.4359 36.2694 21.8607 35.7518 21.4006 35.1191C21.799 37.5164 21.4788 39.978 20.4803 42.1937C19.6176 43.7467 18.1796 44.9545 16.4541 45.4722C16.2816 45.5297 16.0515 45.5872 15.8789 45.5297C15.7639 45.5297 15.7639 45.4722 15.7639 45.3571C15.8214 45.1846 15.994 45.0696 16.109 45.012C16.7992 44.5519 17.6045 44.2068 18.2947 43.6891C19.0424 43.0565 19.6751 42.3662 20.0777 41.5035C20.4228 40.6407 20.6529 39.6629 20.7679 38.6851C20.8829 37.9374 20.9405 37.1897 20.8829 36.3844L20.6529 34.1988L19.6176 32.1282L18.5247 32.3582C17.6804 32.3828 16.8434 32.1957 16.0899 31.8139C15.3365 31.4322 14.6905 30.8679 14.2109 30.1726C13.4612 29.2227 13.0557 28.0467 13.0606 26.8366C13.0606 26.3189 13.2331 25.8013 13.5207 25.3986C13.8083 24.996 14.2109 24.6509 14.6136 24.4208C14.9011 24.1908 15.3038 24.0757 15.6489 23.9607L15.1312 22.5803C14.8436 21.3149 14.8436 19.992 15.0162 18.7266C15.3928 15.5857 16.6489 12.615 18.6398 10.1566C19.1574 9.58138 19.6751 9.06372 20.3078 8.6611C20.7104 8.43103 21.113 8.37352 21.4581 8.14345C23.9314 7.05062 26.6347 6.70551 29.338 6.87807Z" fill="#262626"/>
<path d="M28.187 7.39415C30.5769 7.30526 32.956 7.75748 35.1466 8.71705C36.4695 9.29223 37.7348 10.155 38.7702 11.1903C39.9205 12.3982 40.6682 13.8936 41.0709 15.5041L41.416 18.0924C41.531 19.4728 41.416 20.8532 41.3584 22.2336C41.3009 23.0964 41.1859 23.9016 41.2434 24.7644C41.2434 24.9945 41.2434 25.2245 41.3584 25.4546L41.3009 26.6049C41.1859 26.8925 41.1859 27.1801 41.1859 27.5252C41.0709 28.9056 41.0709 30.3436 40.8408 31.7815C40.7833 32.4717 40.6682 33.2194 40.3806 33.8521C40.2081 34.3698 39.9205 34.8299 39.5179 35.2325C38.8277 35.9803 37.9649 36.6129 37.0446 37.1306C35.9518 37.7633 34.8015 38.0509 33.7086 38.511C33.421 38.6261 33.1335 38.7411 32.9609 38.9712C33.421 39.0287 33.8237 38.9712 34.2838 38.8561C33.9962 39.5463 33.9387 40.2365 33.9387 40.9267C33.9387 41.2143 33.8812 41.5594 33.9962 41.847C34.1688 42.1346 34.4564 42.3647 34.7439 42.5372L36.7571 43.285C38.0224 43.7451 39.2303 44.3203 40.4957 44.8379C40.6107 45.068 40.7833 45.2405 40.8408 45.5281C41.1859 46.1608 41.2434 46.851 41.0133 47.5412C40.7257 48.289 40.1506 48.9216 39.4604 49.3243C38.5401 49.957 37.3897 50.4171 36.2969 50.7047C31.8246 51.6602 27.1878 51.5221 22.7803 50.3021C21.63 49.8994 20.4797 49.4968 19.4443 48.9216C18.6391 48.4615 17.7763 47.8863 17.1437 47.1386C16.7985 46.6785 16.511 46.0458 16.4534 45.4706C17.8003 45.0595 18.9923 44.2528 19.8744 43.1552C20.7566 42.0576 21.2881 40.72 21.3999 39.3163C21.63 37.9358 21.63 36.4979 21.3999 35.1175C21.8601 35.7502 22.4352 36.2678 23.0679 36.6705L24.6209 37.4757C26.8759 38.4485 29.2978 38.9759 31.753 39.0287H32.4433V38.7986L31.4655 38.511L29.1073 38.0509C27.7844 37.7633 26.4615 37.4757 25.1961 36.958C24.4483 36.6129 23.6431 36.2103 22.9529 35.7502C22.3777 35.2325 21.8601 34.7149 21.3999 34.0822L20.3646 32.5292C20.1921 32.2416 20.0195 31.7815 19.7319 31.5514C19.1568 31.6089 18.5816 31.724 18.0064 31.6089C17.2012 31.4939 16.3959 31.2063 15.7632 30.6887C14.8441 29.9776 14.1785 28.9893 13.8652 27.8703C13.7501 27.2376 13.6351 26.5474 13.9227 25.9722C14.1528 25.5121 14.5554 25.167 14.958 24.8794C15.4756 24.5343 16.0508 24.3042 16.626 24.1892C16.8561 24.1317 17.0861 24.1317 17.2587 24.0167L17.2012 23.8441L16.511 23.7866L16.1083 22.9238C15.6482 21.6009 15.5907 20.278 15.7057 18.8976C15.9878 15.9981 17.0624 13.2322 18.8117 10.9027C19.3868 10.2125 20.077 9.57981 20.8248 9.06216C23.1048 7.90451 25.63 7.31267 28.187 7.33664V7.39415Z" fill="#FFDECC"/>
<path d="M15.8223 26.2656C16.0523 26.2656 16.2249 26.2656 16.455 26.3807C16.7425 26.4382 17.0876 26.6107 17.2602 26.8408C17.3752 27.0134 17.3752 27.2434 17.2602 27.416C16.9726 27.7611 16.57 27.9911 16.3399 28.3362C16.685 28.5663 17.1452 28.6814 17.5478 28.8539C17.7779 28.9114 18.0079 29.0265 18.1805 29.199L18.238 29.3716L17.7779 29.2565L16.3974 28.8539C16.1674 28.7964 15.9373 28.6814 15.8798 28.4513C15.8223 28.2787 15.9373 28.0487 16.0523 27.8761L16.9151 27.1284C16.685 26.7258 16.0523 26.6682 15.8223 26.2656ZM41.3024 26.6107L41.4175 26.7833L41.5325 27.7036C41.6518 29.4098 41.6133 31.1234 41.4175 32.8226C41.3024 33.4553 41.1299 34.1455 40.8423 34.7207C39.3163 36.7173 37.1726 38.1531 34.7455 38.8044C34.6879 39.6096 34.5729 40.5874 34.6304 41.5077L34.918 41.7953C35.3782 42.1404 35.9533 42.313 36.471 42.4855C37.8164 42.915 39.1244 43.4536 40.3822 44.096C40.7848 44.3261 41.1299 44.6136 41.4175 44.9587C41.1299 45.0163 40.8423 44.9012 40.4972 44.8437C39.2318 44.3261 38.0239 43.7509 36.7586 43.2907L34.7455 42.543C34.4579 42.3705 34.1703 42.1404 33.9977 41.8528C33.8827 41.5652 33.9402 41.2201 33.9402 40.9325C33.9402 40.2423 33.9977 39.5521 34.2853 38.8619C33.8252 38.977 33.4226 39.0345 32.9624 38.977C33.135 38.7469 33.4226 38.6318 33.7101 38.5168C34.803 38.0567 35.9533 37.7691 37.0462 37.1364C37.9664 36.6187 38.8292 35.9861 39.5194 35.2383C39.922 34.8357 40.2096 34.3756 40.3822 33.8579C40.6697 33.2252 40.7848 32.4775 40.8423 31.7873C41.0724 30.3494 41.0724 28.9114 41.1874 27.531C41.1874 27.1859 41.1874 26.8983 41.3024 26.6107Z" fill="#262626"/>
<path d="M40.7264 22.75L40.6113 23.1526C40.4388 23.4402 40.2662 23.6703 39.9786 23.8428C39.6911 24.0154 39.346 24.0729 39.0009 24.1304L37.9655 24.2455C37.678 24.2455 37.5054 24.418 37.3904 24.5906L36.9877 24.9932C36.8727 25.0507 36.7002 24.9357 36.7577 24.8206C36.8152 24.3605 37.1603 24.0154 37.3904 23.6703C37.5629 23.4977 37.793 23.2677 38.0806 23.2677L39.8061 22.9801C40.0937 22.9226 40.3813 22.75 40.7264 22.75ZM23.1836 22.9801C23.8738 22.9226 24.3915 23.1526 25.0241 23.2101C25.8869 23.3252 26.7497 23.4402 27.6124 23.4402L28.9928 23.5552C29.453 23.6128 29.9706 23.5552 30.3733 23.7853C30.7759 24.0154 31.0635 24.3605 31.2935 24.7056C31.3511 24.8206 31.4086 24.9357 31.2935 25.1082C31.236 25.1657 31.121 25.1082 31.0635 25.0507C30.8334 24.9357 30.6608 24.7056 30.4308 24.6481L29.7406 24.5906L28.1301 24.533L26.8647 24.4755C26.2895 24.418 25.7144 24.418 25.1392 24.1879C24.7366 24.0729 24.449 23.8428 24.0464 23.6703L23.3561 23.1526C23.2411 23.0951 23.1836 23.0951 23.1836 22.9801Z" fill="#262626"/>
<path d="M29.7975 16.0799C30.2001 16.0799 30.6028 16.1949 30.8904 16.425C31.1204 16.54 31.293 16.655 31.3505 16.8851C31.408 17.0001 31.3505 17.1727 31.2355 17.2302C30.9479 17.2877 30.6603 17.1152 30.4302 17.0577L29.9126 17.0001C29.1648 16.9426 28.4171 17.0577 27.6694 17.2302C26.4108 17.5863 25.237 18.1928 24.2183 19.0132C23.9883 19.1283 23.7007 19.3008 23.4131 19.2433C23.2406 19.2433 23.2406 19.0132 23.2981 18.8407C23.3556 18.4956 23.7007 18.208 23.9883 17.9204C24.5635 17.4028 25.3112 17.0577 26.0014 16.7701C27.1517 16.2524 28.5321 15.9648 29.7975 16.0799ZM38.7702 16.1949C39.1729 16.0799 39.5755 16.1374 39.9206 16.3675C40.1506 16.54 40.3807 16.7126 40.4382 17.0001C40.4957 17.1727 40.4957 17.3452 40.3232 17.4028C40.1506 17.4603 39.9206 17.4603 39.748 17.3452C39.4604 17.1727 39.2304 17.0001 38.8853 17.0001C38.5977 17.0001 38.3101 17.0577 38.08 17.1727C37.6199 17.4028 37.1597 17.8054 36.9297 18.2655L36.5846 18.7832H36.412V18.4381C36.5271 17.9779 36.8146 17.5178 37.1597 17.1727C37.5624 16.7126 38.1375 16.3099 38.7702 16.1949Z" fill="#262626"/>
<path d="M13.2905 26.1498C13.5781 26.1498 13.8657 26.0923 14.0958 26.2649C14.2683 26.3799 14.3834 26.5524 14.3258 26.7825C14.2108 27.0126 13.9807 27.1851 13.6932 27.1851H12.7729C12.4853 27.1276 12.2552 27.0126 12.1402 26.7825C12.0827 26.5524 12.2552 26.3799 12.4278 26.2649C12.7154 26.1498 13.0029 26.2073 13.2905 26.1498ZM14.0383 27.4727C14.2108 27.5302 14.4409 27.6453 14.4409 27.8753C14.4409 28.0479 14.3834 28.2205 14.2108 28.278C13.9232 28.508 13.5781 28.508 13.233 28.6231C12.9454 28.6806 12.6578 28.7381 12.4278 28.5656C12.1977 28.393 12.2552 28.0479 12.4278 27.8753C12.6578 27.6453 12.8879 27.6453 13.1755 27.5878C13.4631 27.5302 13.7507 27.4152 14.0383 27.4727ZM18.1795 30.4636H18.6396C18.8122 30.5211 18.9847 30.6937 18.9847 30.9238C18.9847 31.2114 18.7547 31.4414 18.4671 31.4989C18.1795 31.614 17.9494 31.3839 17.8344 31.1538C17.7769 30.8662 17.8919 30.5211 18.1795 30.4636Z" fill="#262626"/>
<path d="M35.7798 28.2734C35.7798 28.446 35.6648 28.6185 35.5498 28.7911C35.3197 29.1362 34.9171 29.3663 34.5144 29.4813C34.2269 29.5388 33.9968 29.3663 33.7667 29.4813C33.5366 29.4813 33.3066 29.5388 33.0765 29.4238C32.9615 29.3663 32.9615 29.1937 33.0765 29.0787C33.2491 28.8486 33.5366 28.6761 33.7667 28.6761C33.9968 28.6185 34.1693 28.6185 34.3419 28.7911L34.3994 29.1937C34.687 29.0787 34.802 28.9061 35.0321 28.7336L35.7798 28.2734Z" fill="#262626"/>
<path d="M42.221 27.0711C42.7387 27.0711 43.1988 27.3012 43.4864 27.7038C43.6208 27.8805 43.7187 28.0822 43.7741 28.2971C43.8296 28.512 43.8416 28.7358 43.8095 28.9555C43.7773 29.1751 43.7017 29.3861 43.587 29.5761C43.4722 29.7661 43.3207 29.9313 43.1413 30.062C43.6015 30.1771 44.0616 30.4647 44.4067 30.8098C44.9244 31.4425 45.327 32.3052 45.2695 33.168C45.2119 33.6281 45.0394 34.0307 44.8093 34.3758C44.3492 35.1236 43.6015 35.6412 42.7962 35.9863L43.2564 36.504C43.4289 36.9066 43.4864 37.3092 43.4864 37.7694C43.4289 38.4596 43.1413 39.1498 42.6237 39.6674C42.0296 40.2355 41.2575 40.5809 40.438 40.6452C39.8628 40.7027 39.2301 40.7027 38.655 40.5302C38.5975 40.9328 38.4824 41.393 38.3099 41.7956C37.9223 42.4791 37.306 43.0038 36.5694 43.2774C35.8329 43.551 35.0234 43.5558 34.2837 43.291C33.5935 43.0034 33.0183 42.4858 32.6732 41.9106C31.8104 42.4283 30.8901 42.6008 29.9123 42.6008C29.1071 42.6583 28.1293 42.6008 27.4391 42.1982C26.979 42.0256 26.6914 41.6805 26.4038 41.3354C26.2312 41.1629 26.1162 40.9903 26.0587 40.7027C25.426 41.2204 24.5632 41.3354 23.8155 41.2204C23.2403 41.0478 22.7227 40.7603 22.4351 40.2426C22.1475 39.8975 22.09 39.3798 22.09 38.9197H21.2847C20.8246 38.8622 20.3645 38.6321 19.9618 38.3445C19.3292 37.7694 18.8115 37.0216 18.4664 36.2164C18.3514 35.8713 18.2363 35.5262 18.2363 35.1236C18.2363 34.4909 18.4664 33.8582 18.869 33.3405C18.6965 32.9379 18.6389 32.5353 18.754 32.1327C18.9265 31.4425 19.4442 30.8673 20.0194 30.5222C20.537 30.1771 21.1697 30.062 21.8024 30.1196C21.9174 29.7745 22.09 29.5444 22.3776 29.3143C23.0103 28.7391 23.8155 28.394 24.6783 28.394C25.2534 28.394 25.7711 28.4516 26.2312 28.6816C26.4613 28.3365 26.7489 28.164 27.094 28.0489C27.7267 27.7614 28.4169 27.8189 29.0496 28.1065C30.1424 28.5091 31.0052 29.1418 32.0405 29.5444C32.3281 29.7745 32.7307 29.7169 33.1333 29.7745C33.5359 29.832 33.9386 29.7745 34.3412 29.7169C34.5137 29.6594 34.7438 29.6594 34.8588 29.5444L35.9517 28.9692L37.102 28.1065C37.5621 27.8189 38.1373 27.5313 38.7125 27.5888C38.9426 27.6463 39.1151 27.7614 39.2301 27.9339C40.1181 27.3529 41.1601 27.0524 42.221 27.0711Z" fill="#262626"/>
<path d="M28.3609 32.4132C28.5335 32.3557 28.6485 32.4132 28.6485 32.5282C28.6485 32.7008 28.476 32.8733 28.3034 32.9308C28.1309 32.7583 28.1884 32.5282 28.3609 32.4132ZM29.7989 33.1034L31.8695 33.506L33.595 33.6211C33.9976 33.6786 34.3427 33.6211 34.6878 33.7361C34.6303 33.8511 34.5153 33.9086 34.3427 33.9662C32.9167 34.1908 31.4577 34.0725 30.0864 33.6211C29.9139 33.5635 29.6838 33.4485 29.6263 33.2759C29.5688 33.1609 29.6838 33.0459 29.7989 33.1034Z" fill="#FFDECC"/>
<path d="M28.0732 6.13131C29.6974 6.13454 31.3167 6.30804 32.9047 6.64897C33.5374 6.82152 34.1125 6.93655 34.6877 7.16662L36.7008 7.91435C37.276 8.0869 37.7936 8.432 38.3688 8.66207L39.2891 9.00718L40.9571 9.35228C41.2447 9.46732 41.4747 9.63987 41.5898 9.92746C41.7623 10.2726 41.7048 10.6177 41.5898 10.9628L42.165 11.2504C42.4525 11.5379 42.5676 11.9406 42.4525 12.3432C42.3375 12.5733 42.1074 12.7458 41.8774 12.8608C40.6535 13.4885 39.2437 13.652 37.9087 13.321L35.3779 12.7458L31.8118 11.768C28.7631 10.725 25.4448 10.786 22.4365 11.9406L22.2064 12.7458C21.9764 13.6661 21.8038 14.5864 21.7463 15.5066V16.4844L21.6888 16.9446C21.5162 17.3472 21.1711 17.7498 20.9411 18.1524C20.2509 19.1877 19.6182 20.2806 19.1005 21.3734L18.9855 22.1786V24.4218C18.9855 24.7094 19.1005 24.9395 18.928 25.1695C18.0652 25.0545 17.2024 24.8244 16.2822 24.5944C16.1671 24.5944 15.9946 24.5944 15.8795 24.4793L15.4769 23.9617C15.2468 23.7891 15.1893 23.444 15.0743 23.1564C14.6717 21.9486 14.5566 20.5682 14.5566 19.2453C14.5566 17.6348 14.8442 16.0818 15.1318 14.5288C15.3619 13.6661 15.707 12.8608 16.1096 12.1131C16.6848 10.9628 17.49 9.98497 18.4103 9.12221C19.3306 8.20194 20.4234 7.56925 21.6313 7.10911C23.6963 6.37428 25.8831 6.04235 28.0732 6.13131ZM17.4325 25.1695C18.0077 25.1695 18.5829 25.3421 19.1005 25.4571C19.3306 25.5146 19.6182 25.6297 19.7907 25.8022C19.9633 25.9173 19.9058 26.1473 19.7332 26.2049C19.2155 26.3774 18.8129 26.2049 18.3528 26.0898C18.0077 25.9748 17.5475 25.8598 17.2024 25.6297C17.0874 25.5722 16.9149 25.3996 17.0299 25.2846C17.1449 25.1695 17.3175 25.1695 17.4325 25.1695ZM42.5676 31.8991C42.6251 32.0141 42.6251 32.0716 42.5101 32.1867L42.5676 31.8991Z" fill="#262626"/>
</g>
</svg>
