<svg width="16" height="15" viewBox="0 0 16 15" fill="none" xmlns="http://www.w3.org/2000/svg">
<path d="M6.02612 0.988477C6.79881 -0.329489 8.70412 -0.32949 9.47681 0.988476L10.5537 2.82537C10.8357 3.30634 11.3057 3.64778 11.8502 3.76733L13.93 4.22391C15.4222 4.55151 16.011 6.36357 14.9963 7.50571L13.5821 9.09756C13.2118 9.51437 13.0323 10.0668 13.0869 10.6217L13.2954 12.7408C13.4449 14.2612 11.9035 15.3811 10.5037 14.769L8.55274 13.9159C8.04191 13.6926 7.46102 13.6926 6.95019 13.9159L4.99924 14.769C3.59944 15.3811 2.05801 14.2612 2.20757 12.7408L2.41602 10.6217C2.4706 10.0668 2.2911 9.51437 1.92081 9.09756L0.506602 7.50572C-0.508084 6.36357 0.0806895 4.55151 1.57292 4.22391L3.6527 3.76733C4.19727 3.64778 4.66721 3.30634 4.94919 2.82537L6.02612 0.988477Z" fill="#B3B3B3"/>
</svg>
