<svg width="20" height="19" viewBox="0 0 20 19" fill="none" xmlns="http://www.w3.org/2000/svg">
<path d="M7.92798 0.988458C8.70067 -0.329508 10.606 -0.329505 11.3787 0.988461L13.1045 3.9322C13.3865 4.41317 13.8564 4.75461 14.401 4.87416L17.734 5.60586C19.2262 5.93346 19.815 7.74552 18.8003 8.88767L16.5339 11.4387C16.1637 11.8555 15.9841 12.408 16.0387 12.9628L16.3728 16.3588C16.5223 17.8792 14.9809 18.9991 13.5811 18.387L10.4546 17.0199C9.94376 16.7966 9.36288 16.7966 8.85205 17.0199L5.72552 18.387C4.32572 18.9991 2.78429 17.8792 2.93386 16.3588L3.26791 12.9628C3.32249 12.408 3.14299 11.8555 2.7727 11.4387L0.506342 8.88766C-0.508344 7.74552 0.0804318 5.93346 1.57267 5.60586L4.90565 4.87416C5.45021 4.75461 5.92015 4.41317 6.20213 3.9322L7.92798 0.988458Z" fill="#B3B3B3"/>
</svg>
