<svg width="57" height="57" viewBox="0 0 57 57" fill="none" xmlns="http://www.w3.org/2000/svg">
<mask id="mask0_57_6960" style="mask-type:luminance" maskUnits="userSpaceOnUse" x="0" y="0" width="57" height="57">
<path d="M56.367 0H0V56.367H56.367V0Z" fill="white"/>
</mask>
<g mask="url(#mask0_57_6960)">
<path fill-rule="evenodd" clip-rule="evenodd" d="M32.3615 3.26753C32.0164 2.69236 31.4988 2.1747 30.7511 2.11719L30.9811 2.46229L31.0962 2.69236L31.4988 3.44009L31.6138 3.55512C31.9014 4.24533 32.074 4.93554 32.1315 5.68326C32.1315 6.08588 32.0164 6.43099 31.9014 6.83361C31.7289 5.85581 31.2112 5.10809 30.636 4.41788C30.0256 3.79297 29.2769 3.32014 28.4504 3.03746C27.3172 2.58715 26.075 2.48697 24.8843 2.74988C24.4242 2.8074 24.0215 3.03746 23.5614 3.26753C23.1588 3.4976 22.8137 3.84271 22.4686 4.13029C21.6331 4.96087 20.9858 5.96123 20.5705 7.06368C20.2254 7.92644 19.8228 8.7892 19.3051 9.59444C18.9025 10.2846 18.3273 10.9173 17.7521 11.435L16.1417 12.5278C15.196 13.1227 14.2749 13.756 13.3808 14.4259C12.0579 15.5762 11.0801 17.1292 10.5625 18.8547C10.3324 19.7175 10.1599 20.6378 10.2749 21.5005C10.3899 21.9607 10.505 22.3633 10.735 22.7659V23.226C10.505 24.3189 10.4474 25.4692 10.7926 26.562C11.1712 27.8522 11.818 29.0478 12.6906 30.0706L13.4959 31.1634C13.841 31.7386 14.1286 32.3713 14.1861 33.0615C14.1861 33.5792 14.0135 34.0393 13.6109 34.3844C13.3014 34.6563 12.9229 34.8377 12.5171 34.9088C12.1112 34.9798 11.6937 34.9377 11.3102 34.787L11.0226 34.6145L10.7926 34.4994L10.735 34.6145C10.6775 34.672 10.62 34.787 10.6775 34.9021L11.0801 35.6498C11.4252 36.1099 11.8279 36.455 12.3455 36.6851C12.7481 36.9152 13.2083 36.9727 13.6684 36.8576C13.956 36.8001 14.1861 36.6851 14.4161 36.5125C14.4161 37.0877 14.5887 37.6629 14.7612 38.1805C14.9913 38.8132 15.3364 39.4459 15.8541 39.9061C16.3142 40.3662 16.8894 40.5963 17.4646 40.7688C17.9822 40.9414 18.4999 40.9414 19.0175 40.8263C19.1326 40.7688 19.1326 40.7113 19.1326 40.5963L18.96 40.1936L18.9025 40.0786L18.4424 38.9283C19.4777 39.676 20.6855 40.0211 21.9509 40.1361C22.7562 40.1936 23.6189 40.0786 24.3666 39.791C24.5392 39.7335 24.7693 39.6185 24.8268 39.4459C24.9418 39.2734 24.8268 39.1008 24.7693 38.9283L24.5392 38.0655L24.4817 37.893C24.9993 38.2381 25.517 38.4681 26.1497 38.4681C26.8399 38.4681 27.5876 38.1805 27.9902 37.6054L28.1628 37.5478C27.8751 35.0108 27.2763 32.5188 26.3797 30.1281C25.9909 29.0901 25.5097 28.0891 24.9418 27.1372L24.8268 26.7921C24.8268 25.9294 24.7117 24.9516 24.1941 24.2614C24.5967 23.6287 24.6542 22.8234 24.7117 22.1332C24.7117 21.558 24.7117 20.9829 24.4242 20.4652L24.6542 20.4077L25.1144 20.3502C25.2294 20.2927 25.2869 20.1201 25.3444 20.0051C25.7295 18.4066 26.309 16.8613 27.07 15.4037L27.4726 14.5984C27.5876 14.4259 27.5876 14.2533 27.6451 14.0233V13.7932L27.5301 12.988L27.4726 12.4703L28.6229 12.8154H29.1981C32.1051 12.315 35.0691 12.2375 37.9982 12.5853L38.4009 12.7004L38.6884 12.8154C38.8035 12.8154 38.976 12.7579 39.0336 12.6429C39.2061 12.4703 39.2636 12.2402 39.3211 12.0102L39.4937 12.1252L40.0113 12.5278L40.414 12.7579C40.6793 12.8075 40.9495 12.8268 41.2192 12.8154L42.1395 13.7357L42.197 13.7932C43.4091 15.1791 44.4518 16.7045 45.3029 18.3371C45.533 18.5096 45.8206 18.3946 45.9356 18.1645C46.3383 17.2442 46.3958 16.2089 46.2232 15.2311C45.9037 13.7706 45.1402 12.4446 44.0376 11.435C43.6925 11.0324 43.2323 10.6873 42.7722 10.3422L40.3565 9.07678C39.1486 8.55913 37.8832 8.1565 36.6178 7.92644C35.1799 7.63885 33.742 7.63885 32.2465 7.69637C32.8792 7.06368 33.0518 6.20092 33.0518 5.33816C33.0518 4.59043 32.7642 3.90022 32.3615 3.26753ZM17.5221 13.5056C18.2123 12.7004 18.9025 11.8951 19.4201 10.9173L18.4999 11.8951C17.9247 12.4128 17.292 12.7579 16.6593 13.1605L16.0266 13.5631L15.8541 13.6206C15.1064 14.0808 14.3011 14.5984 13.6684 15.1736C12.403 16.2664 11.5403 17.7619 11.1377 19.3724C10.9651 20.2351 10.8501 21.1554 11.0801 22.0182C11.4252 20.9829 11.9429 19.9476 12.5181 19.0273C13.2658 17.8769 14.1861 16.7841 15.1639 15.8063L16.2567 14.7135L17.5221 13.5056Z" fill="#262626"/>
<path d="M34.0294 8.50307C35.6399 8.56058 37.2504 8.84817 38.8609 9.36583C41.1122 10.0014 43.1177 11.305 44.6126 13.1044C45.7054 14.5424 46.3956 16.2679 46.6257 18.0509C46.9361 19.9724 46.9748 21.9279 46.7407 23.8602L46.4531 25.8158L46.2231 26.9661C46.1656 27.0812 46.1656 27.0812 46.0505 27.0812C45.9355 26.8511 45.9355 26.621 45.9355 26.3909C45.878 25.5282 45.993 24.7229 46.0505 23.8602C46.108 22.4798 46.2231 21.0994 46.108 19.7189L45.7629 17.1307C45.3603 15.5202 44.6126 14.0247 43.4622 12.8169C42.4269 11.7816 41.1615 10.9188 39.8386 10.3436C38.5733 9.82596 37.3079 9.48086 35.985 9.25079C34.9497 9.07824 33.9144 9.02072 32.8791 9.02072C30.3268 8.97892 27.8019 9.55098 25.5168 10.6887C24.7691 11.2064 24.0789 11.8391 23.5037 12.5293C21.7339 14.8525 20.6393 17.619 20.3403 20.5242C20.2828 21.9046 20.3403 23.2275 20.8004 24.5504L21.203 25.4132L21.8932 25.4707L21.9508 25.6432C21.7782 25.7583 21.5481 25.7583 21.3181 25.8158C20.7429 25.9308 20.1677 26.1609 19.6501 26.506C19.2474 26.7936 18.8448 27.1387 18.6148 27.5988C18.3272 28.174 18.4422 28.8642 18.5572 29.4969C18.8448 30.5897 19.535 31.625 20.4553 32.3152C21.088 32.8329 21.8932 33.1205 22.6985 33.2355C23.2737 33.3505 23.8488 33.2355 24.424 33.178C24.7116 33.4081 24.8841 33.8682 25.0567 34.1558L26.092 35.7088C27.0277 37.0386 28.3546 38.0439 29.8882 38.5846C31.1535 39.1023 32.4764 39.3899 33.7993 39.6774L36.1575 40.1376L37.1353 40.4252V40.6552H36.4451C35.1522 40.5831 33.8651 40.4294 32.5915 40.1951C30.8809 39.8547 29.2448 39.2119 27.76 38.297C27.1273 37.8944 26.5521 37.3768 26.092 36.7441C26.4904 39.1414 26.1702 41.603 25.1717 43.8187C24.309 45.3717 22.871 46.5795 21.1455 47.0972C20.973 47.1547 20.7429 47.2122 20.5703 47.1547C20.4553 47.1547 20.4553 47.0972 20.4553 46.9821C20.5128 46.8096 20.6854 46.6946 20.8004 46.637C21.4906 46.1769 22.2959 45.8318 22.9861 45.3141C23.7338 44.6814 24.3665 43.9912 24.7691 43.1285C25.1142 42.2657 25.3443 41.2879 25.4593 40.3101C25.5744 39.5624 25.6319 38.8147 25.5744 38.0094L25.3443 35.8238L24.309 33.7532L23.2161 33.9832C22.3718 34.0078 21.5348 33.8207 20.7813 33.4389C20.0279 33.0572 19.3819 32.4929 18.9023 31.7976C18.1526 30.8477 17.7471 29.6717 17.752 28.4616C17.752 27.9439 17.9245 27.4263 18.2121 27.0236C18.4997 26.621 18.9023 26.2759 19.305 26.0458C19.5926 25.8158 19.9952 25.7007 20.3403 25.5857L19.8226 24.2053C19.535 22.9399 19.535 21.617 19.7076 20.3516C20.0842 17.2107 21.3403 14.24 23.3312 11.7816C23.8488 11.2064 24.3665 10.6887 24.9992 10.2861C25.4018 10.056 25.8044 9.99852 26.1495 9.76845C28.6228 8.67562 31.3261 8.33051 34.0294 8.50307Z" fill="#262626"/>
<path d="M32.8784 9.01915C35.2683 8.93026 37.6474 9.38248 39.838 10.3421C41.1609 10.9172 42.4263 11.78 43.4616 12.8153C44.6119 14.0232 45.3596 15.5186 45.7623 17.1291L46.1074 19.7174C46.2224 21.0978 46.1074 22.4782 46.0498 23.8586C45.9923 24.7214 45.8773 25.5266 45.9348 26.3894C45.9348 26.6194 45.9348 26.8495 46.0498 27.0796L45.9923 28.2299C45.8773 28.5175 45.8773 28.8051 45.8773 29.1502C45.7623 30.5306 45.7623 31.9686 45.5322 33.4065C45.4747 34.0967 45.3596 34.8444 45.072 35.4771C44.8995 35.9948 44.6119 36.4549 44.2093 36.8575C43.5191 37.6053 42.6563 38.2379 41.736 38.7556C40.6432 39.3883 39.4929 39.6759 38.4 40.136C38.1125 40.251 37.8249 40.3661 37.6523 40.5962C38.1125 40.6537 38.5151 40.5962 38.9752 40.4811C38.6876 41.1713 38.6301 41.8615 38.6301 42.5517C38.6301 42.8393 38.5726 43.1844 38.6876 43.472C38.8602 43.7596 39.1478 43.9897 39.4354 44.1622L41.4485 44.91C42.7138 45.3701 43.9217 45.9453 45.1871 46.4629C45.3021 46.693 45.4747 46.8655 45.5322 47.1531C45.8773 47.7858 45.9348 48.476 45.7047 49.1662C45.4172 49.914 44.842 50.5466 44.1518 50.9493C43.2315 51.582 42.0811 52.0421 40.9883 52.3297C36.516 53.2852 31.8792 53.1471 27.4718 51.9271C26.3214 51.5244 25.1711 51.1218 24.1357 50.5466C23.3305 50.0865 22.4677 49.5113 21.8351 48.7636C21.49 48.3035 21.2024 47.6708 21.1448 47.0956C22.4917 46.6845 23.6837 45.8777 24.5658 44.7802C25.448 43.6826 25.9795 42.345 26.0913 40.9413C26.3214 39.5608 26.3214 38.1229 26.0913 36.7425C26.5515 37.3752 27.1266 37.8928 27.7593 38.2955L29.3123 39.1007C31.5673 40.0735 33.9892 40.6009 36.4445 40.6537H37.1347V40.4236L36.1569 40.136L33.7987 39.6759C32.4758 39.3883 31.1529 39.1007 29.8875 38.583C29.1398 38.2379 28.3345 37.8353 27.6443 37.3752C27.0691 36.8575 26.5515 36.3399 26.0913 35.7072L25.056 34.1542C24.8835 33.8666 24.7109 33.4065 24.4233 33.1764C23.8482 33.2339 23.273 33.349 22.6978 33.2339C21.8926 33.1189 21.0873 32.8313 20.4546 32.3137C19.5355 31.6026 18.8699 30.6143 18.5566 29.4953C18.4415 28.8626 18.3265 28.1724 18.6141 27.5972C18.8442 27.1371 19.2468 26.792 19.6494 26.5044C20.1671 26.1593 20.7422 25.9292 21.3174 25.8142C21.5475 25.7567 21.7775 25.7567 21.9501 25.6417L21.8926 25.4691L21.2024 25.4116L20.7997 24.5488C20.3396 23.2259 20.2821 21.903 20.3971 20.5226C20.6793 17.6231 21.7538 14.8572 23.5031 12.5277C24.0782 11.8375 24.7684 11.2048 25.5162 10.6872C27.7962 9.52951 30.3214 8.93767 32.8784 8.96164V9.01915Z" fill="#FFDECC"/>
<path d="M20.5137 27.8828C20.7437 27.8828 20.9163 27.8828 21.1464 27.9978C21.4339 28.0554 21.7791 28.2279 21.9516 28.458C22.0666 28.6305 22.0666 28.8606 21.9516 29.0332C21.664 29.3783 21.2614 29.6083 21.0313 29.9534C21.3764 30.1835 21.8366 30.2985 22.2392 30.4711C22.4693 30.5286 22.6993 30.6436 22.8719 30.8162L22.9294 30.9887L22.4693 30.8737L21.0888 30.4711C20.8588 30.4136 20.6287 30.2985 20.5712 30.0685C20.5137 29.8959 20.6287 29.6658 20.7437 29.4933L21.6065 28.7456C21.3764 28.343 20.7437 28.2854 20.5137 27.8828ZM45.9938 28.2279L46.1089 28.4005L46.2239 29.3207C46.3432 31.027 46.3047 32.7406 46.1089 34.4398C45.9938 35.0725 45.8213 35.7627 45.5337 36.3379C44.0077 38.3345 41.864 39.7703 39.4369 40.4216C39.3793 41.2268 39.2643 42.2046 39.3218 43.1249L39.6094 43.4125C40.0696 43.7576 40.6447 43.9301 41.1624 44.1027C42.5078 44.5322 43.8158 45.0708 45.0736 45.7132C45.4762 45.9432 45.8213 46.2308 46.1089 46.5759C45.8213 46.6335 45.5337 46.5184 45.1886 46.4609C43.9232 45.9432 42.7154 45.3681 41.45 44.9079L39.4369 44.1602C39.1493 43.9877 38.8617 43.7576 38.6891 43.47C38.5741 43.1824 38.6316 42.8373 38.6316 42.5497C38.6316 41.8595 38.6891 41.1693 38.9767 40.4791C38.5166 40.5941 38.114 40.6517 37.6538 40.5941C37.8264 40.3641 38.114 40.249 38.4016 40.134C39.4944 39.6739 40.6447 39.3863 41.7376 38.7536C42.6578 38.2359 43.5206 37.6032 44.2108 36.8555C44.6134 36.4529 44.901 35.9928 45.0736 35.4751C45.3611 34.8424 45.4762 34.0947 45.5337 33.4045C45.7638 31.9665 45.7638 30.5286 45.8788 29.1482C45.8788 28.8031 45.8788 28.5155 45.9938 28.2279Z" fill="#262626"/>
<path d="M44.0371 22.2488C44.4972 22.1912 44.9574 22.3063 45.3025 22.5939C45.475 22.7664 45.6476 22.9965 45.6476 23.2265C45.7051 23.5141 45.4175 23.8017 45.1299 23.8017C44.8998 23.7442 44.7848 23.6292 44.6698 23.4566L44.0946 23.054C44.6123 23.9743 44.3247 25.2397 43.5194 25.8723C43.1168 26.2174 42.4841 26.3325 42.0815 25.9299C41.7364 25.6423 41.6214 25.2397 41.6214 24.7795C41.5063 25.0671 41.3338 25.2972 41.2763 25.5848C41.2187 25.6998 41.2187 25.8148 41.1037 25.8148C40.9887 25.5272 41.0462 25.1821 41.1612 24.837C41.5063 23.9168 42.139 23.1115 43.0018 22.6514C43.2894 22.4213 43.6345 22.3063 44.0371 22.2488ZM31.8434 22.8814C33.3964 22.939 34.8918 23.9168 35.5245 25.2972C35.6396 25.4122 35.7546 25.6423 35.582 25.8148C35.4095 25.8148 35.2945 25.5848 35.1794 25.4697C34.9494 25.0096 34.6042 24.6645 34.2016 24.3769C34.3167 25.0096 34.3167 25.5848 33.9716 26.1599C33.684 26.6201 33.0513 26.9077 32.5336 26.8501C32.131 26.7351 31.7284 26.5626 31.4408 26.2174C31.0957 25.8723 30.9807 25.2972 30.9807 24.837C30.9807 24.4344 31.1532 24.0893 31.3258 23.8017C30.5205 23.9743 29.7153 24.3194 29.0826 24.837C28.91 24.8946 28.795 25.0096 28.6224 25.0096C28.3924 24.9521 28.2773 24.7795 28.2773 24.5494C28.2773 24.3769 28.3924 24.2043 28.5074 24.0893C28.9676 23.7442 29.4277 23.3991 30.0029 23.169C30.578 22.939 31.2107 22.8239 31.8434 22.8814Z" fill="#262626"/>
<path d="M32.4198 16.7253C33.2826 16.7828 34.2604 17.0129 34.9506 17.588C35.1807 17.7606 35.4107 17.9907 35.4683 18.2207C35.5258 18.3933 35.5258 18.5083 35.3532 18.5658C35.1807 18.5658 35.0081 18.3933 34.8931 18.2782C34.2604 17.8181 33.5127 17.5305 32.7074 17.5305C32.2473 17.5305 31.8447 17.6456 31.3845 17.7606C30.5218 17.9331 29.7165 18.3933 29.1989 19.0835C29.0263 19.256 28.9113 19.4861 28.6237 19.5436C28.3361 19.6011 28.0485 19.3711 28.0485 19.0835C27.991 18.8534 28.1636 18.6234 28.2786 18.4508C28.9688 17.588 30.0041 17.0129 31.097 16.7828C31.4996 16.6678 31.9597 16.6678 32.4198 16.7253ZM44.2109 17.3005C44.4985 17.4155 44.7861 17.7031 44.9586 17.9331C45.1312 18.1057 45.2462 18.3358 45.2462 18.5658C45.2462 18.9109 44.9011 19.141 44.556 19.026C44.2684 18.9109 44.2109 18.6234 43.9808 18.3933C43.7508 18.2207 43.4632 17.9907 43.2331 17.9331C42.5429 17.7031 41.8527 17.9907 41.3925 18.4508L40.8749 18.9685C40.8749 18.5658 41.105 18.2207 41.3925 17.9907C42.0828 17.2429 43.2331 16.9553 44.2109 17.3005Z" fill="#262626"/>
<path d="M40.4712 29.8984C40.4712 30.071 40.3562 30.2435 40.2412 30.4161C40.0111 30.7612 39.6085 30.9913 39.2058 31.1063C38.9183 31.1638 38.6882 30.9913 38.4581 31.1063C38.2281 31.1063 37.998 31.1638 37.7679 31.0488C37.6529 30.9913 37.6529 30.8187 37.7679 30.7037C37.9405 30.4736 38.2281 30.3011 38.4581 30.3011C38.6882 30.2435 38.8607 30.2435 39.0333 30.4161L39.0908 30.8187C39.3784 30.7037 39.4934 30.5311 39.7235 30.3586L40.4712 29.8984Z" fill="#262626"/>
<path d="M32.9364 33C33.109 33 33.224 33.115 33.3391 33.2301L34.0868 33.6327C34.7195 33.9203 35.4097 34.0928 36.0424 34.2654C36.9051 34.553 37.7679 34.6105 38.6307 34.6105C39.3209 34.668 39.9535 34.7255 40.5862 34.668L40.8163 34.783C39.781 35.3007 38.4581 35.4157 37.3078 35.3582C35.9849 35.3007 34.662 34.8981 33.5116 34.3229C33.1665 34.0928 32.7639 33.8628 32.7064 33.4026C32.6489 33.2301 32.7639 33 32.9364 33Z" fill="#262626"/>
<path d="M34.7773 7.69956C36.7065 7.80989 38.5984 8.27799 40.3564 9.07998C41.1617 9.4826 42.0244 9.88522 42.7722 10.4029C43.2323 10.6905 43.6924 11.0356 44.0375 11.4382L45.3029 12.8761C44.7853 13.1062 44.2676 13.0487 43.75 12.9912C42.7722 12.8761 41.7944 12.7611 40.8166 12.8186L40.3564 12.7611L39.9538 12.4735L39.2636 12.0134C39.2636 12.2434 39.2061 12.416 39.0911 12.6461C38.976 12.7611 38.861 12.8186 38.6884 12.8186C38.4584 12.7611 38.2858 12.6461 38.0557 12.6461C35.095 12.2097 32.0823 12.268 29.1406 12.8186H28.5079L27.4726 12.4735C27.5301 12.9912 27.7026 13.5088 27.6451 13.969C27.5876 14.199 27.5876 14.4291 27.4726 14.6016C27.0699 15.4069 26.6098 16.1546 26.2647 17.0174C25.8621 17.9952 25.517 19.0305 25.2869 20.0658C25.2869 20.1808 25.2294 20.2959 25.1144 20.3534L24.4241 20.4684C24.7117 20.9861 24.7692 21.6188 24.7117 22.1939C24.6542 22.8841 24.5392 23.6894 24.1941 24.2645C24.5967 24.7822 24.7692 25.4724 24.7692 26.1626C24.8268 27.2554 24.7692 28.2908 24.3666 29.3261C24.2516 29.5561 24.079 29.8437 23.7915 29.9588C23.7339 30.0163 23.5614 30.0163 23.5614 29.9012C23.4463 29.6712 23.4463 29.3836 23.3888 29.1535C23.2738 28.2908 22.8712 27.4855 22.2385 26.8528C21.7783 26.4502 21.2607 26.0476 20.743 25.76C20.3979 25.645 20.1103 25.5299 19.8228 25.2999L19.4777 24.8397C18.7874 22.9992 18.5574 20.9861 18.7874 19.0305C19.032 16.7385 19.7571 14.5238 20.9156 12.531C21.4908 11.6107 22.181 10.8055 22.9287 10.0578C23.5039 9.54012 24.079 9.07998 24.7117 8.73488L25.517 8.44729L27.3575 7.8146L28.4504 7.69956H30.9236C32.2465 7.69956 33.4544 7.58453 34.7773 7.69956Z" fill="#262626"/>
</g>
</svg>
