<svg width="47" height="47" viewBox="0 0 47 47" fill="none" xmlns="http://www.w3.org/2000/svg">
<mask id="mask0_157_30082" style="mask-type:luminance" maskUnits="userSpaceOnUse" x="0" y="0" width="47" height="47">
<path d="M46.9725 0H0V46.9725H46.9725V0Z" fill="white"/>
</mask>
<g mask="url(#mask0_157_30082)">
<path fill-rule="evenodd" clip-rule="evenodd" d="M26.9678 2.72295C26.6802 2.24364 26.2488 1.81226 25.6257 1.76433L25.8174 2.05191L25.9133 2.24364L26.2488 2.86674L26.3447 2.96261C26.5843 3.53778 26.7281 4.11295 26.7761 4.73606C26.7761 5.07157 26.6802 5.35916 26.5843 5.69468C26.4405 4.87985 26.0092 4.25674 25.5299 3.68157C25.0212 3.16082 24.3973 2.76679 23.7085 2.53123C22.7642 2.15596 21.729 2.07248 20.7367 2.29157C20.3533 2.3395 20.0178 2.53123 19.6343 2.72295C19.2988 2.91467 19.0112 3.20226 18.7236 3.44192C18.0274 4.13407 17.488 4.9677 17.1419 5.8864C16.8543 6.60537 16.5188 7.32433 16.0874 7.99537C15.7519 8.57054 15.2726 9.09778 14.7933 9.52916L13.4512 10.4399C12.6632 10.9356 11.8956 11.4633 11.1505 12.0216C10.0481 12.9802 9.23329 14.2743 8.80191 15.7123C8.61018 16.4312 8.46639 17.1981 8.56225 17.9171C8.65811 18.3006 8.75398 18.6361 8.9457 18.9716V19.355C8.75398 20.2657 8.70604 21.2243 8.99363 22.135C9.30913 23.2101 9.84813 24.2065 10.5754 25.0588L11.2464 25.9695C11.534 26.4488 11.7736 26.9761 11.8216 27.5513C11.8216 27.9826 11.6778 28.3661 11.3423 28.6537C11.0843 28.8803 10.7689 29.0315 10.4307 29.0906C10.0925 29.1498 9.74458 29.1147 9.42501 28.9892L9.18536 28.8454L8.99363 28.7495L8.9457 28.8454C8.89777 28.8933 8.84984 28.9892 8.89777 29.085L9.23329 29.7082C9.52087 30.0916 9.85639 30.3792 10.2878 30.5709C10.6233 30.7626 11.0067 30.8106 11.3902 30.7147C11.6298 30.6668 11.8216 30.5709 12.0133 30.4271C12.0133 30.9064 12.1571 31.3857 12.3009 31.8171C12.4926 32.3444 12.7802 32.8716 13.2116 33.2551C13.595 33.6385 14.0743 33.8302 14.5536 33.974C14.985 34.1178 15.4164 34.1178 15.8478 34.0219C15.9436 33.974 15.9436 33.9261 15.9436 33.8302L15.7998 33.4947L15.7519 33.3988L15.3685 32.4402C16.2312 33.0633 17.2378 33.3509 18.2923 33.4468C18.9633 33.4947 19.6823 33.3988 20.3054 33.1592C20.4492 33.1113 20.6409 33.0154 20.6888 32.8716C20.7847 32.7278 20.6888 32.584 20.6409 32.4402L20.4492 31.7213L20.4012 31.5775C20.8326 31.8651 21.264 32.0568 21.7912 32.0568C22.3664 32.0568 22.9895 31.8171 23.325 31.3378L23.4688 31.2899C23.2291 29.1757 22.73 27.099 21.983 25.1068C21.6589 24.2418 21.2579 23.4076 20.7847 22.6144L20.6888 22.3268C20.6888 21.6078 20.593 20.793 20.1616 20.2178C20.4971 19.6906 20.545 19.0195 20.593 18.4443C20.593 17.965 20.593 17.4857 20.3533 17.0543L20.545 17.0064L20.9285 16.9585C21.0243 16.9106 21.0723 16.7668 21.1202 16.6709C21.4411 15.3388 21.924 14.0511 22.5581 12.8364L22.8936 12.1654C22.9895 12.0216 22.9895 11.8778 23.0374 11.6861V11.4943L22.9416 10.8233L22.8936 10.3919L23.8523 10.6795H24.3316C26.754 10.2625 29.2241 10.1979 31.665 10.4878L32.0006 10.5836L32.2402 10.6795C32.3361 10.6795 32.4799 10.6316 32.5278 10.5357C32.6716 10.3919 32.7195 10.2002 32.7675 10.0085L32.9112 10.1043L33.3426 10.4399L33.6781 10.6316C33.8993 10.6729 34.1244 10.689 34.3492 10.6795L35.1161 11.4464L35.164 11.4943C36.1741 12.6493 37.043 13.9204 37.7523 15.2809C37.944 15.4247 38.1837 15.3288 38.2795 15.1371C38.615 14.3702 38.663 13.5074 38.5192 12.6926C38.2529 11.4755 37.6167 10.3705 36.6978 9.52916C36.4102 9.19365 36.0268 8.90606 35.6433 8.61847L33.6302 7.56399C32.6237 7.13261 31.5692 6.79709 30.5147 6.60537C29.3164 6.36571 28.1181 6.36571 26.8719 6.41364C27.3992 5.8864 27.543 5.16744 27.543 4.44847C27.543 3.82536 27.3033 3.25019 26.9678 2.72295ZM14.6016 11.2547C15.1767 10.5836 15.7519 9.91261 16.1833 9.09778L15.4164 9.91261C14.9371 10.344 14.4098 10.6316 13.8826 10.9671L13.3554 11.3026L13.2116 11.3505C12.5885 11.734 11.9174 12.1654 11.3902 12.6447C10.3357 13.5554 9.61674 14.8016 9.28122 16.1437C9.13742 16.8626 9.04156 17.6295 9.23329 18.3485C9.52087 17.4857 9.95225 16.623 10.4316 15.8561C11.0547 14.8974 11.8216 13.9868 12.6364 13.1719L13.5471 12.2612L14.6016 11.2547Z" fill="#262626"/>
<path d="M28.3575 7.08589C29.6996 7.13382 31.0416 7.37347 32.3837 7.80485C34.2598 8.33451 35.9311 9.42085 37.1768 10.9204C38.0875 12.1187 38.6627 13.5566 38.8544 15.0424C39.1131 16.6437 39.1454 18.2733 38.9503 19.8835L38.7106 21.5131L38.5189 22.4718C38.471 22.5676 38.471 22.5676 38.3751 22.5676C38.2792 22.3759 38.2792 22.1842 38.2792 21.9925C38.2313 21.2735 38.3272 20.6025 38.3751 19.8835C38.423 18.7331 38.5189 17.5828 38.423 16.4325L38.1354 14.2756C37.7999 12.9335 37.1768 11.6873 36.2182 10.6807C35.3554 9.81796 34.301 9.09899 33.1985 8.61968C32.1441 8.1883 31.0896 7.90072 29.9872 7.70899C29.1244 7.5652 28.2616 7.51727 27.3989 7.51727C25.272 7.48244 23.1679 7.95915 21.2637 8.90727C20.6406 9.33865 20.0654 9.86589 19.5861 10.4411C18.1112 12.3771 17.199 14.6825 16.9499 17.1035C16.902 18.2538 16.9499 19.3562 17.3334 20.4587L17.6689 21.1776L18.244 21.2256L18.292 21.3694C18.1482 21.4652 17.9565 21.4652 17.7647 21.5131C17.2854 21.609 16.8061 21.8007 16.3747 22.0883C16.0392 22.328 15.7037 22.6156 15.512 22.999C15.2723 23.4783 15.3682 24.0535 15.464 24.5807C15.7037 25.4914 16.2789 26.3542 17.0458 26.9294C17.573 27.3607 18.244 27.6004 18.9151 27.6963C19.3944 27.7921 19.8737 27.6963 20.353 27.6483C20.5927 27.84 20.7365 28.2235 20.8803 28.4632L21.743 29.7573C22.5228 30.8655 23.6285 31.7032 24.9065 32.1538C25.961 32.5852 27.0634 32.8249 28.1658 33.0645L30.131 33.448L30.9458 33.6876V33.8794H30.3706C29.2931 33.8193 28.2206 33.6912 27.1592 33.4959C25.7338 33.2123 24.3704 32.6766 23.133 31.9142C22.6058 31.5787 22.1265 31.1473 21.743 30.6201C22.075 32.6178 21.8081 34.6692 20.9761 36.5156C20.2572 37.8097 19.0589 38.8163 17.6209 39.2477C17.4771 39.2956 17.2854 39.3435 17.1416 39.2956C17.0458 39.2956 17.0458 39.2477 17.0458 39.1518C17.0937 39.008 17.2375 38.9121 17.3334 38.8642C17.9085 38.4808 18.5796 38.1932 19.1547 37.7618C19.7778 37.2345 20.3051 36.6594 20.6406 35.9404C20.9282 35.2214 21.1199 34.4066 21.2158 33.5918C21.3116 32.9687 21.3596 32.3456 21.3116 31.6745L21.1199 29.8532L20.2572 28.1276L19.3465 28.3194C18.6429 28.3398 17.9453 28.1839 17.3175 27.8658C16.6896 27.5476 16.1513 27.0774 15.7516 26.498C15.1268 25.7064 14.7889 24.7264 14.793 23.718C14.793 23.2866 14.9368 22.8552 15.1765 22.5197C15.4161 22.1842 15.7516 21.8966 16.0871 21.7049C16.3268 21.5131 16.6623 21.4173 16.9499 21.3214L16.5185 20.1711C16.2789 19.1166 16.2789 18.0142 16.4227 16.9597C16.7365 14.3422 17.7833 11.8666 19.4423 9.81796C19.8737 9.33865 20.3051 8.90727 20.8323 8.57175C21.1678 8.38003 21.5034 8.3321 21.7909 8.14037C23.852 7.22968 26.1047 6.94209 28.3575 7.08589Z" fill="#262626"/>
<path d="M27.3986 7.51597C29.3902 7.44189 31.3728 7.81874 33.1983 8.61838C34.3007 9.09769 35.3552 9.81666 36.218 10.6794C37.1766 11.686 37.7997 12.9322 38.1352 14.2743L38.4228 16.4311C38.5187 17.5815 38.4228 18.7318 38.3749 19.8822C38.3269 20.6012 38.2311 21.2722 38.279 21.9912C38.279 22.1829 38.279 22.3746 38.3749 22.5663L38.3269 23.525C38.2311 23.7646 38.2311 24.0043 38.2311 24.2918C38.1352 25.4422 38.1352 26.6405 37.9435 27.8387C37.8956 28.4139 37.7997 29.037 37.56 29.5643C37.4162 29.9956 37.1766 30.3791 36.8411 30.7146C36.2659 31.3377 35.5469 31.865 34.78 32.2963C33.8693 32.8236 32.9107 33.0632 32 33.4467C31.7604 33.5425 31.5207 33.6384 31.3769 33.8301C31.7604 33.8781 32.0959 33.8301 32.4793 33.7343C32.2397 34.3094 32.1918 34.8846 32.1918 35.4598C32.1918 35.6994 32.1438 35.987 32.2397 36.2267C32.3835 36.4663 32.6231 36.6581 32.8628 36.8019L34.5404 37.425C35.5949 37.8084 36.6014 38.2877 37.6559 38.7191C37.7518 38.9108 37.8956 39.0546 37.9435 39.2943C38.2311 39.8215 38.279 40.3967 38.0873 40.9719C37.8476 41.595 37.3683 42.1222 36.7931 42.4577C36.0262 42.985 35.0676 43.3684 34.1569 43.6081C30.43 44.4043 26.566 44.2892 22.8931 43.2726C21.9345 42.937 20.9759 42.6015 20.1131 42.1222C19.4421 41.7388 18.7231 41.2595 18.1959 40.6363C17.9083 40.2529 17.6686 39.7257 17.6207 39.2463C18.7431 38.9038 19.7364 38.2315 20.4715 37.3168C21.2067 36.4022 21.6496 35.2875 21.7428 34.1177C21.9345 32.9674 21.9345 31.7691 21.7428 30.6188C22.1262 31.146 22.6055 31.5774 23.1328 31.9129L24.4269 32.5839C26.3061 33.3946 28.3243 33.8341 30.3704 33.8781H30.9455V33.6863L30.1307 33.4467L28.1655 33.0632C27.0631 32.8236 25.9607 32.5839 24.9062 32.1525C24.2831 31.865 23.6121 31.5294 23.0369 31.146C22.5576 30.7146 22.1262 30.2832 21.7428 29.756L20.88 28.4619C20.7362 28.2222 20.5924 27.8387 20.3528 27.647C19.8735 27.695 19.3942 27.7908 18.9148 27.695C18.2438 27.5991 17.5728 27.3594 17.0455 26.9281C16.2796 26.3355 15.725 25.5119 15.4638 24.5794C15.3679 24.0522 15.2721 23.477 15.5117 22.9977C15.7035 22.6143 16.039 22.3267 16.3745 22.087C16.8059 21.7994 17.2852 21.6077 17.7645 21.5118C17.9562 21.4639 18.1479 21.4639 18.2917 21.3681L18.2438 21.2243L17.6686 21.1763L17.3331 20.4574C16.9497 19.3549 16.9017 18.2525 16.9976 17.1022C17.2327 14.686 18.1282 12.381 19.5859 10.4398C20.0652 9.86459 20.6404 9.33735 21.2635 8.90597C23.1635 7.94126 25.2678 7.44806 27.3986 7.46804V7.51597Z" fill="#FFDECC"/>
<path d="M17.0947 23.2357C17.2865 23.2357 17.4302 23.2357 17.622 23.3315C17.8616 23.3795 18.1492 23.5233 18.293 23.715C18.3889 23.8588 18.3889 24.0505 18.293 24.1943C18.0533 24.4819 17.7178 24.6736 17.5261 24.9612C17.8137 25.1529 18.1971 25.2488 18.5327 25.3926C18.7244 25.4405 18.9161 25.5364 19.0599 25.6802L19.1078 25.824L18.7244 25.7281L17.574 25.3926C17.3823 25.3447 17.1906 25.2488 17.1427 25.0571C17.0947 24.9133 17.1906 24.7216 17.2865 24.5778L18.0054 23.9547C17.8137 23.6191 17.2865 23.5712 17.0947 23.2357ZM38.3282 23.5233L38.4241 23.6671L38.5199 24.434C38.6194 25.8558 38.5873 27.2839 38.4241 28.6998C38.3282 29.2271 38.1844 29.8022 37.9447 30.2816C36.673 31.9454 34.8867 33.1419 32.8641 33.6847C32.8161 34.3557 32.7203 35.1705 32.7682 35.9374L33.0078 36.1771C33.3913 36.4647 33.8706 36.6085 34.302 36.7523C35.4231 37.1101 36.5132 37.559 37.5613 38.0943C37.8968 38.286 38.1844 38.5257 38.4241 38.8133C38.1844 38.8612 37.9447 38.7654 37.6572 38.7174C36.6027 38.286 35.5961 37.8067 34.5416 37.4233L32.8641 36.8002C32.6244 36.6564 32.3847 36.4647 32.241 36.225C32.1451 35.9854 32.193 35.6978 32.193 35.4581C32.193 34.8829 32.241 34.3078 32.4806 33.7326C32.0972 33.8285 31.7616 33.8764 31.3782 33.8285C31.522 33.6367 31.7616 33.5409 32.0013 33.445C32.912 33.0616 33.8706 32.8219 34.7813 32.2947C35.5482 31.8633 36.2672 31.336 36.8423 30.7129C37.1779 30.3774 37.4175 29.994 37.5613 29.5626C37.801 29.0353 37.8968 28.4122 37.9447 27.8371C38.1365 26.6388 38.1365 25.4405 38.2323 24.2902C38.2323 24.0026 38.2323 23.7629 38.3282 23.5233Z" fill="#262626"/>
<path d="M36.6976 18.5406C37.081 18.4927 37.4645 18.5886 37.7521 18.8282C37.8958 18.972 38.0396 19.1637 38.0396 19.3555C38.0876 19.5951 37.8479 19.8348 37.6083 19.8348C37.4165 19.7868 37.3207 19.691 37.2248 19.5472L36.7455 19.2117C37.1769 19.9786 36.9372 21.0331 36.2662 21.5603C35.9307 21.8479 35.4034 21.9437 35.0679 21.6082C34.7803 21.3686 34.6845 21.0331 34.6845 20.6496C34.5886 20.8893 34.4448 21.081 34.3969 21.3206C34.3489 21.4165 34.3489 21.5124 34.2531 21.5124C34.1572 21.2727 34.2052 20.9851 34.301 20.6975C34.5886 19.9306 35.1158 19.2596 35.8348 18.8762C36.0745 18.6844 36.3621 18.5886 36.6976 18.5406ZM26.5362 19.0679C27.8303 19.1158 29.0765 19.9306 29.6038 21.081C29.6996 21.1768 29.7955 21.3686 29.6517 21.5124C29.5079 21.5124 29.412 21.3206 29.3162 21.2248C29.1245 20.8413 28.8369 20.5537 28.5014 20.3141C28.5972 20.8413 28.5972 21.3206 28.3096 21.8C28.07 22.1834 27.5427 22.4231 27.1114 22.3751C26.7758 22.2793 26.4403 22.1355 26.2007 21.8479C25.9131 21.5603 25.8172 21.081 25.8172 20.6975C25.8172 20.362 25.961 20.0744 26.1048 19.8348C25.4338 19.9786 24.7627 20.2662 24.2355 20.6975C24.0917 20.7455 23.9958 20.8413 23.852 20.8413C23.6603 20.7934 23.5645 20.6496 23.5645 20.4579C23.5645 20.3141 23.6603 20.1703 23.7562 20.0744C24.1396 19.7868 24.5231 19.4993 25.0024 19.3075C25.4817 19.1158 26.0089 19.0199 26.5362 19.0679Z" fill="#262626"/>
<path d="M27.0165 13.9377C27.7355 13.9857 28.5503 14.1774 29.1255 14.6567C29.3172 14.8005 29.509 14.9922 29.5569 15.1839C29.6048 15.3277 29.6048 15.4236 29.461 15.4715C29.3172 15.4715 29.1734 15.3277 29.0776 15.2319C28.5503 14.8484 27.9272 14.6088 27.2562 14.6088C26.8727 14.6088 26.5372 14.7046 26.1538 14.8005C25.4348 14.9443 24.7638 15.3277 24.3324 15.9029C24.1886 16.0467 24.0927 16.2384 23.8531 16.2864C23.6134 16.3343 23.3738 16.1426 23.3738 15.9029C23.3258 15.7112 23.4696 15.5195 23.5655 15.3757C24.1407 14.6567 25.0034 14.1774 25.9141 13.9857C26.2496 13.8898 26.6331 13.8898 27.0165 13.9377ZM36.8424 14.417C37.0821 14.5129 37.3217 14.7526 37.4655 14.9443C37.6093 15.0881 37.7052 15.2798 37.7052 15.4715C37.7052 15.7591 37.4176 15.9508 37.13 15.855C36.8903 15.7591 36.8424 15.5195 36.6507 15.3277C36.459 15.1839 36.2193 14.9922 36.0276 14.9443C35.4524 14.7526 34.8772 14.9922 34.4938 15.3757L34.0624 15.807C34.0624 15.4715 34.2541 15.1839 34.4938 14.9922C35.069 14.3691 36.0276 14.1295 36.8424 14.417Z" fill="#262626"/>
<path d="M33.726 24.9154C33.726 25.0592 33.6302 25.203 33.5343 25.3468C33.3426 25.6343 33.0071 25.8261 32.6715 25.9219C32.4319 25.9699 32.2402 25.8261 32.0484 25.9219C31.8567 25.9219 31.665 25.9699 31.4733 25.874C31.3774 25.8261 31.3774 25.6823 31.4733 25.5864C31.6171 25.3947 31.8567 25.2509 32.0484 25.2509C32.2402 25.203 32.384 25.203 32.5277 25.3468L32.5757 25.6823C32.8153 25.5864 32.9112 25.4426 33.1029 25.2988L33.726 24.9154Z" fill="#262626"/>
<path d="M27.4469 27.5C27.5907 27.5 27.6865 27.5959 27.7824 27.6917L28.4055 28.0272C28.9327 28.2669 29.5079 28.4107 30.0351 28.5545C30.7541 28.7941 31.4731 28.8421 32.192 28.8421C32.7672 28.89 33.2945 28.9379 33.8217 28.89L34.0134 28.9859C33.1507 29.4172 32.0483 29.5131 31.0896 29.4652C29.9872 29.4172 28.8848 29.0817 27.9262 28.6024C27.6386 28.4107 27.3031 28.219 27.2551 27.8355C27.2072 27.6917 27.3031 27.5 27.4469 27.5Z" fill="#262626"/>
<path d="M28.9807 6.41631C30.5884 6.50825 32.165 6.89833 33.63 7.56665C34.3011 7.90217 35.02 8.23769 35.6431 8.66907C36.0266 8.90873 36.41 9.19631 36.6976 9.53183L37.7521 10.7301C37.3207 10.9218 36.8894 10.8739 36.458 10.826C35.6431 10.7301 34.8283 10.6342 34.0135 10.6822L33.63 10.6342L33.2945 10.3946L32.7193 10.0111C32.7193 10.2029 32.6714 10.3467 32.5756 10.5384C32.4797 10.6342 32.3838 10.6822 32.24 10.6822C32.0483 10.6342 31.9045 10.5384 31.7128 10.5384C29.2455 10.1747 26.7349 10.2233 24.2835 10.6822H23.7562L22.8935 10.3946C22.9414 10.826 23.0852 11.2573 23.0373 11.6408C22.9893 11.8325 22.9893 12.0242 22.8935 12.168C22.558 12.8391 22.1745 13.4622 21.8869 14.1811C21.5514 14.996 21.2638 15.8587 21.0721 16.7215C21.0721 16.8174 21.0242 16.9132 20.9283 16.9611L20.3531 17.057C20.5928 17.4884 20.6407 18.0156 20.5928 18.4949C20.5449 19.0701 20.449 19.7412 20.1614 20.2205C20.4969 20.6518 20.6407 21.227 20.6407 21.8022C20.6886 22.7129 20.6407 23.5756 20.3052 24.4384C20.2093 24.6301 20.0655 24.8698 19.8259 24.9656C19.778 25.0136 19.6342 25.0136 19.6342 24.9177C19.5383 24.726 19.5383 24.4863 19.4904 24.2946C19.3945 23.5756 19.059 22.9046 18.5317 22.3774C18.1483 22.0418 17.7169 21.7063 17.2855 21.4667C16.998 21.3708 16.7583 21.2749 16.5186 21.0832L16.2311 20.6998C15.6559 19.166 15.4642 17.4884 15.6559 15.8587C15.8597 13.9487 16.464 12.1032 17.4293 10.4425C17.9086 9.67562 18.4838 9.00459 19.1069 8.38148C19.5862 7.9501 20.0655 7.56665 20.5928 7.27907L21.2638 7.03941L22.7976 6.51217L23.7083 6.41631H25.7693C26.8718 6.41631 27.8783 6.32045 28.9807 6.41631Z" fill="#262626"/>
</g>
</svg>
