<svg width="156" height="34" viewBox="0 0 156 34" fill="none" xmlns="http://www.w3.org/2000/svg">
<path d="M9.91658 16.9999L16.9999 9.91658L24.0833 16.9999L16.9999 24.0833L9.91658 16.9999Z" fill="#1A1A1A"/>
<path d="M31.1666 8.49992V16.9999L16.9999 2.83325H25.4999L31.1666 8.49992Z" fill="#1A1A1A"/>
<path d="M31.1666 25.4999V16.9999L16.9999 31.1666H25.4999L31.1666 25.4999Z" fill="#1A1A1A"/>
<path d="M2.83325 25.4999V16.9999L16.9999 31.1666H8.49992L2.83325 25.4999Z" fill="#1A1A1A"/>
<path d="M2.83325 8.49992V16.9999L16.9999 2.83325H8.49992L2.83325 8.49992Z" fill="#1A1A1A"/>
<path d="M39.6497 23.375V10.4833H41.7676V23.375H39.6497ZM41.1046 23.375V21.4412H47.8451V23.375H41.1046Z" fill="#262626"/>
<path d="M49.5174 23.375V14.535H51.5432V23.375H49.5174ZM50.5303 12.9143C50.1865 12.9143 49.898 12.7977 49.6647 12.5644C49.4437 12.3311 49.3332 12.0426 49.3332 11.6988C49.3332 11.355 49.4437 11.0665 49.6647 10.8332C49.898 10.6 50.1865 10.4833 50.5303 10.4833C50.8864 10.4833 51.1749 10.6 51.3959 10.8332C51.6169 11.0665 51.7274 11.355 51.7274 11.6988C51.7274 12.0426 51.6169 12.3311 51.3959 12.5644C51.1749 12.7977 50.8864 12.9143 50.5303 12.9143Z" fill="#262626"/>
<path d="M55.1598 23.375V10.8517H57.1856V23.375H55.1598ZM53.0419 16.3767V14.535H64.6444V16.3767H53.0419ZM60.5006 23.375V10.8517H62.5265V23.375H60.5006Z" fill="#262626"/>
<path d="M66.1171 23.375V10.115H68.143V23.375H66.1171Z" fill="#262626"/>
<path d="M74.5045 23.5592C73.6205 23.5592 72.8224 23.3627 72.1103 22.9698C71.4105 22.5647 70.8519 22.0122 70.4344 21.3123C70.0292 20.6125 69.8267 19.8267 69.8267 18.955C69.8267 18.0833 70.0292 17.3036 70.4344 16.6161C70.8396 15.9162 71.3859 15.3637 72.0735 14.9586C72.7733 14.5534 73.5468 14.3508 74.394 14.3508C75.2166 14.3508 75.941 14.5411 76.5672 14.9217C77.2056 15.3024 77.7029 15.8242 78.0589 16.4872C78.4272 17.1502 78.6114 17.9052 78.6114 18.7524C78.6114 18.8997 78.5991 19.0532 78.5746 19.2128C78.5623 19.3602 78.5377 19.5259 78.5009 19.7101H71.2447V18.0526H77.4512L76.6961 18.7156C76.6715 18.1754 76.5672 17.7211 76.383 17.3527C76.1988 16.9844 75.9349 16.702 75.5911 16.5056C75.2596 16.3091 74.8483 16.2109 74.3572 16.2109C73.8415 16.2109 73.3934 16.3214 73.0127 16.5424C72.6321 16.7634 72.3375 17.0765 72.1287 17.4817C71.92 17.8745 71.8157 18.3472 71.8157 18.8997C71.8157 19.4522 71.9262 19.9372 72.1472 20.3547C72.3682 20.7721 72.6812 21.0975 73.0864 21.3307C73.4916 21.5517 73.9581 21.6622 74.4861 21.6622C74.9404 21.6622 75.3578 21.5824 75.7384 21.4228C76.1313 21.2632 76.4628 21.0299 76.7329 20.723L78.0221 22.0306C77.5924 22.534 77.0705 22.9146 76.4567 23.1724C75.8428 23.4302 75.1921 23.5592 74.5045 23.5592Z" fill="#262626"/>
<path d="M84.1986 23.375V10.4833H86.3165V23.375H84.1986ZM85.6535 23.375V21.4412H92.394V23.375H85.6535Z" fill="#262626"/>
<path d="M97.8491 23.5592C96.9651 23.5592 96.167 23.3627 95.4549 22.9698C94.7551 22.5647 94.1964 22.0122 93.779 21.3123C93.3738 20.6125 93.1712 19.8267 93.1712 18.955C93.1712 18.0833 93.3738 17.3036 93.779 16.6161C94.1841 15.9162 94.7305 15.3637 95.4181 14.9586C96.1179 14.5534 96.8914 14.3508 97.7386 14.3508C98.5612 14.3508 99.2856 14.5411 99.9117 14.9217C100.55 15.3024 101.047 15.8242 101.403 16.4872C101.772 17.1502 101.956 17.9052 101.956 18.7524C101.956 18.8997 101.944 19.0532 101.919 19.2128C101.907 19.3602 101.882 19.5259 101.845 19.7101H94.5893V18.0526H100.796L100.041 18.7156C100.016 18.1754 99.9117 17.7211 99.7276 17.3527C99.5434 16.9844 99.2794 16.702 98.9356 16.5056C98.6041 16.3091 98.1928 16.2109 97.7017 16.2109C97.1861 16.2109 96.7379 16.3214 96.3573 16.5424C95.9767 16.7634 95.682 17.0765 95.4733 17.4817C95.2646 17.8745 95.1602 18.3472 95.1602 18.8997C95.1602 19.4522 95.2707 19.9372 95.4917 20.3547C95.7127 20.7721 96.0258 21.0975 96.431 21.3307C96.8361 21.5517 97.3027 21.6622 97.8306 21.6622C98.2849 21.6622 98.7024 21.5824 99.083 21.4228C99.4759 21.2632 99.8074 21.0299 100.077 20.723L101.367 22.0306C100.937 22.534 100.415 22.9146 99.8012 23.1724C99.1873 23.4302 98.5366 23.5592 97.8491 23.5592Z" fill="#262626"/>
<path d="M107.282 23.5592C106.484 23.5592 105.759 23.3566 105.109 22.9514C104.47 22.5462 103.961 21.9999 103.58 21.3123C103.212 20.6125 103.027 19.8329 103.027 18.9734C103.027 18.1017 103.212 17.322 103.58 16.6345C103.961 15.9347 104.47 15.3822 105.109 14.977C105.759 14.5595 106.484 14.3508 107.282 14.3508C107.957 14.3508 108.552 14.4982 109.068 14.7928C109.596 15.0752 110.014 15.4681 110.32 15.9715C110.627 16.4749 110.781 17.0458 110.781 17.6842V20.2257C110.781 20.8642 110.627 21.4351 110.32 21.9385C110.026 22.4419 109.614 22.8409 109.087 23.1356C108.559 23.418 107.957 23.5592 107.282 23.5592ZM107.613 21.6438C108.362 21.6438 108.964 21.3921 109.418 20.8887C109.885 20.3854 110.118 19.7408 110.118 18.955C110.118 18.427 110.014 17.9605 109.805 17.5553C109.596 17.1502 109.301 16.8371 108.921 16.6161C108.552 16.3828 108.117 16.2662 107.613 16.2662C107.122 16.2662 106.686 16.3828 106.306 16.6161C105.937 16.8371 105.643 17.1502 105.422 17.5553C105.213 17.9605 105.109 18.427 105.109 18.955C105.109 19.4829 105.213 19.9495 105.422 20.3547C105.643 20.7598 105.937 21.079 106.306 21.3123C106.686 21.5333 107.122 21.6438 107.613 21.6438ZM109.989 23.375V20.9992L110.339 18.8445L109.989 16.7082V14.535H112.015V23.375H109.989Z" fill="#262626"/>
<path d="M114.263 23.375V14.535H116.289V23.375H114.263ZM116.289 18.4577L115.589 18.1078C115.589 16.9905 115.835 16.0881 116.326 15.4006C116.829 14.7007 117.584 14.3508 118.591 14.3508C119.033 14.3508 119.432 14.4306 119.788 14.5902C120.144 14.7499 120.476 15.0077 120.783 15.3637L119.457 16.7266C119.297 16.5547 119.119 16.4319 118.922 16.3582C118.726 16.2846 118.499 16.2477 118.241 16.2477C117.676 16.2477 117.21 16.4258 116.841 16.7818C116.473 17.1379 116.289 17.6965 116.289 18.4577Z" fill="#262626"/>
<path d="M127.822 23.375V18.2736C127.822 17.6842 127.632 17.1993 127.251 16.8187C126.883 16.438 126.404 16.2477 125.814 16.2477C125.422 16.2477 125.072 16.3337 124.765 16.5056C124.458 16.6775 124.218 16.9169 124.046 17.2238C123.875 17.5308 123.789 17.8807 123.789 18.2736L122.997 17.8316C122.997 17.1563 123.144 16.5608 123.439 16.0452C123.733 15.5172 124.139 15.1059 124.654 14.8112C125.182 14.5043 125.772 14.3508 126.422 14.3508C127.085 14.3508 127.675 14.5227 128.19 14.8665C128.706 15.198 129.111 15.6339 129.406 16.1741C129.7 16.702 129.848 17.2545 129.848 17.8316V23.375H127.822ZM121.763 23.375V14.535H123.789V23.375H121.763Z" fill="#262626"/>
<path d="M136.013 23.5592C135.129 23.5592 134.331 23.3627 133.619 22.9698C132.919 22.5647 132.361 22.0122 131.943 21.3123C131.538 20.6125 131.335 19.8267 131.335 18.955C131.335 18.0833 131.538 17.3036 131.943 16.6161C132.348 15.9162 132.895 15.3637 133.582 14.9586C134.282 14.5534 135.056 14.3508 135.903 14.3508C136.725 14.3508 137.45 14.5411 138.076 14.9217C138.714 15.3024 139.212 15.8242 139.568 16.4872C139.936 17.1502 140.12 17.9052 140.12 18.7524C140.12 18.8997 140.108 19.0532 140.083 19.2128C140.071 19.3602 140.047 19.5259 140.01 19.7101H132.754V18.0526H138.96L138.205 18.7156C138.18 18.1754 138.076 17.7211 137.892 17.3527C137.708 16.9844 137.444 16.702 137.1 16.5056C136.768 16.3091 136.357 16.2109 135.866 16.2109C135.35 16.2109 134.902 16.3214 134.522 16.5424C134.141 16.7634 133.846 17.0765 133.638 17.4817C133.429 17.8745 133.324 18.3472 133.324 18.8997C133.324 19.4522 133.435 19.9372 133.656 20.3547C133.877 20.7721 134.19 21.0975 134.595 21.3307C135 21.5517 135.467 21.6622 135.995 21.6622C136.449 21.6622 136.867 21.5824 137.247 21.4228C137.64 21.2632 137.972 21.0299 138.242 20.723L139.531 22.0306C139.101 22.534 138.579 22.9146 137.965 23.1724C137.352 23.4302 136.701 23.5592 136.013 23.5592Z" fill="#262626"/>
<path d="M141.744 23.375V14.535H143.77V23.375H141.744ZM143.77 18.4577L143.07 18.1078C143.07 16.9905 143.316 16.0881 143.807 15.4006C144.31 14.7007 145.065 14.3508 146.072 14.3508C146.514 14.3508 146.913 14.4306 147.269 14.5902C147.625 14.7499 147.957 15.0077 148.264 15.3637L146.938 16.7266C146.778 16.5547 146.6 16.4319 146.404 16.3582C146.207 16.2846 145.98 16.2477 145.722 16.2477C145.157 16.2477 144.691 16.4258 144.323 16.7818C143.954 17.1379 143.77 17.6965 143.77 18.4577Z" fill="#262626"/>
<path d="M151.938 23.5592C151.446 23.5592 150.974 23.4978 150.519 23.375C150.065 23.2399 149.648 23.0558 149.267 22.8225C148.886 22.5769 148.555 22.2823 148.273 21.9385L149.562 20.6493C149.869 21.0054 150.219 21.2755 150.612 21.4597C151.017 21.6315 151.471 21.7175 151.974 21.7175C152.429 21.7175 152.772 21.65 153.006 21.5149C153.239 21.3799 153.356 21.1834 153.356 20.9256C153.356 20.6555 153.245 20.4467 153.024 20.2994C152.803 20.1521 152.515 20.0293 152.159 19.9311C151.815 19.8206 151.446 19.7101 151.054 19.5996C150.673 19.4891 150.305 19.3417 149.949 19.1576C149.605 18.9611 149.322 18.6972 149.101 18.3657C148.88 18.0342 148.77 17.6044 148.77 17.0765C148.77 16.5117 148.899 16.0267 149.157 15.6216C149.427 15.2164 149.801 14.9033 150.28 14.6823C150.771 14.4613 151.354 14.3508 152.03 14.3508C152.742 14.3508 153.368 14.4797 153.908 14.7376C154.461 14.9831 154.921 15.3576 155.289 15.861L154 17.1502C153.742 16.8309 153.448 16.5915 153.116 16.4319C152.785 16.2723 152.404 16.1925 151.974 16.1925C151.569 16.1925 151.256 16.2539 151.035 16.3767C150.814 16.4994 150.704 16.6775 150.704 16.9107C150.704 17.1563 150.814 17.3466 151.035 17.4817C151.256 17.6167 151.538 17.7334 151.882 17.8316C152.238 17.9298 152.607 18.0403 152.987 18.1631C153.38 18.2736 153.748 18.4332 154.092 18.6419C154.448 18.8384 154.737 19.1085 154.958 19.4522C155.179 19.7837 155.289 20.2196 155.289 20.7598C155.289 21.6193 154.989 22.3007 154.387 22.8041C153.785 23.3075 152.969 23.5592 151.938 23.5592Z" fill="#262626"/>
</svg>
